<?xml version="1.0" encoding="UTF-8" standalone="no"?>
<svg
   version="1.1"
   viewBox="0 0 1058.7002 1877.8308"
   width="3176.1006"
   height="5633.4927"
   id="svg1114"
   sodipodi:docname="semantic_version_history-d.svg"
   inkscape:version="1.1.2 (1:1.1+202202050950+0a00cf5339)"
   xmlns:inkscape="http://www.inkscape.org/namespaces/inkscape"
   xmlns:sodipodi="http://sodipodi.sourceforge.net/DTD/sodipodi-0.dtd"
   xmlns="http://www.w3.org/2000/svg"
   xmlns:svg="http://www.w3.org/2000/svg">
  <sodipodi:namedview
     id="namedview1116"
     pagecolor="#ffffff"
     bordercolor="#666666"
     borderopacity="1.0"
     inkscape:pageshadow="2"
     inkscape:pageopacity="0.0"
     inkscape:pagecheckerboard="0"
     showgrid="false"
     fit-margin-top="0"
     fit-margin-left="0"
     fit-margin-right="0"
     fit-margin-bottom="0"
     inkscape:zoom="0.22627417"
     inkscape:cx="1650.6524"
     inkscape:cy="3999.5727"
     inkscape:window-width="1920"
     inkscape:window-height="1016"
     inkscape:window-x="0"
     inkscape:window-y="27"
     inkscape:window-maximized="1"
     inkscape:current-layer="svg1114"
     showguides="false" />
  <!-- svg-source:excalidraw -->
  <g
     transform="translate(158.74221,890.09324)"
     id="g1096"
     style="fill:#808080">
    <text
       x="0"
       y="25"
       font-family="'FG Virgil'"
       font-size="28px"
       fill="#000000"
       text-anchor="start"
       style="white-space:pre;fill:#808080"
       direction="ltr"
       id="text1090">- Homologação da correção de um bug da história D</text>
    <text
       x="0"
       y="61"
       font-family="'FG Virgil'"
       font-size="28px"
       fill="#000000"
       text-anchor="start"
       style="white-space:pre;fill:#808080"
       direction="ltr"
       id="text1092">- funcionalidade da história C disponível em produção</text>
    <text
       x="0"
       y="97"
       font-family="'FG Virgil'"
       font-size="28px"
       fill="#000000"
       text-anchor="start"
       style="white-space:pre;fill:#808080"
       direction="ltr"
       id="text1094" />
  </g>
  <defs
     id="defs4">
    <style
       id="style2">
      @font-face {
        font-family: &quot;Virgil&quot;;
        src: url(&quot;https://excalidraw.com/Virgil.woff2&quot;);
      }
      @font-face {
        font-family: &quot;Cascadia&quot;;
        src: url(&quot;https://excalidraw.com/Cascadia.woff2&quot;);
      }
    </style>
  </defs>
  <g
     transform="translate(441.17189,347.31845)"
     id="g1108"
     style="fill:#808080">
    <text
       x="0"
       y="25"
       font-family="'FG Virgil'"
       font-size="28px"
       fill="#000000"
       text-anchor="start"
       style="white-space:pre;fill:#808080"
       direction="ltr"
       id="text1106">AMBIENTES</text>
  </g>
  <g
     transform="translate(333.29711,0.78515625)"
     id="g1112"
     style="fill:#808080">
    <text
       x="0"
       y="25"
       font-family="'FG Virgil'"
       font-size="28px"
       fill="#000000"
       text-anchor="start"
       style="white-space:pre;fill:#808080"
       direction="ltr"
       id="text1110">BRANCHS (RAMIFICAÇÕES)</text>
  </g>
  <text
     x="406.69003"
     y="442.17389"
     font-family="'FG Virgil'"
     font-size="28px"
     fill="#000000"
     text-anchor="start"
     style="white-space:pre;fill:#808080"
     direction="ltr"
     id="text1106-9">Início da história</text>
  <g
     id="g9762"
     transform="translate(48.961959,-1372.1773)">
    <g
       stroke-linecap="round"
       transform="translate(3.359054,1583.0589)"
       id="g746">
      <path
         d="m 16.85,0.6 178.25,0.77 8.81,-0.73 3.52,4.72 4.93,10.76 0.67,40.61 -0.13,4.95 -4.84,9.37 -10.71,3.81 L 17.7,72.66 12.35,73.01 3.3,67.63 1.12,60.62 1.63,12.89 4.23,5.04 8.67,1.83 20.46,-0.34"
         stroke="none"
         stroke-width="0"
         fill="#fa5252"
         id="path742" />
      <path
         d="m 18.5,0 m 0,0 c 54.9,1.34 111.67,0.94 177,0 m -177,0 c 70.44,-0.26 140.33,1.35 177,0 m 0,0 c 11.91,-1.41 17.02,5.16 18.5,18.5 M 195.5,0 c 14.47,-1.51 16.54,6.8 18.5,18.5 m 0,0 c -1.82,12.4 0.43,21.69 0,37 m 0,-37 c -1.04,10.82 0.91,22.27 0,37 m 0,0 c 1.06,13.64 -6.78,20.16 -18.5,18.5 M 214,55.5 c -2.22,14.26 -6.02,20.42 -18.5,18.5 m 0,0 C 129.81,71.82 65.95,72.46 18.5,74 m 177,0 c -41.97,0.39 -82.58,0.76 -177,0 m 0,0 C 7.44,75.5 -1.9,69.01 0,55.5 M 18.5,74 C 4.54,74.13 0.49,68.71 0,55.5 m 0,0 C -0.27,43.42 1.98,30.14 0,18.5 m 0,37 C -0.54,44.55 -0.17,31.99 0,18.5 m 0,0 C -0.94,5.43 7.87,0.97 18.5,0 M 0,18.5 C 0.13,4.23 7.28,-1.63 18.5,0"
         stroke="#c92a2a"
         stroke-width="4"
         fill="none"
         id="path744" />
    </g>
    <g
       transform="translate(58.859055,1601.3446)"
       id="g750">
      <text
         x="0"
         y="25"
         font-family="'FG Virgil'"
         font-size="28px"
         fill="#000000"
         text-anchor="start"
         style="white-space:pre;fill:#ffffff"
         direction="ltr"
         id="text748">develop</text>
    </g>
    <g
       stroke-linecap="round"
       transform="translate(364.35906,1583.0589)"
       id="g756">
      <path
         d="m 18.1,1.37 177.72,-1.89 5.83,2.41 6.37,4.69 4.72,8.82 1.31,38.19 0.08,9.65 -5.5,9.02 -13.93,0.4 L 20.45,74.16 11.1,73.7 3.44,67.56 1.63,58.56 -0.1,14.58 2.89,5.3 12.36,0.82 18.7,1.01"
         stroke="none"
         stroke-width="0"
         fill="#fab005"
         id="path752" />
      <path
         d="m 18.5,0 m 0,0 c 56.43,-0.22 110.94,-1.29 177,0 m -177,0 c 48.96,2.1 98.39,0.43 177,0 m 0,0 c 10.85,-1 20.36,4.85 18.5,18.5 M 195.5,0 c 10.37,0.63 18.85,5.06 18.5,18.5 m 0,0 c 0.31,7.54 -0.25,17.94 0,37 m 0,-37 c 0.62,9.56 0.17,20.07 0,37 m 0,0 C 213.39,69.49 205.9,75.67 195.5,74 M 214,55.5 c 0.15,14.26 -4.63,18.04 -18.5,18.5 m 0,0 c -43.83,-1.77 -89.52,-1.45 -177,0 m 177,0 c -59.43,-0.48 -119.49,0.21 -177,0 m 0,0 C 4.26,75.18 -1.42,67.95 0,55.5 M 18.5,74 C 6.65,74.88 1.12,66.98 0,55.5 m 0,0 C 1.91,44.72 0.36,32.14 0,18.5 m 0,37 C -0.08,44.75 -0.2,34.12 0,18.5 m 0,0 C 1.7,7.13 6.28,-1.68 18.5,0 M 0,18.5 C 1.11,4.54 5.61,0.89 18.5,0"
         stroke="#e67700"
         stroke-width="4"
         fill="none"
         id="path754" />
    </g>
    <g
       transform="translate(374.14477,1604.0589)"
       id="g760">
      <text
         x="0"
         y="25"
         font-family="'FG Virgil'"
         font-size="28px"
         fill="#000000"
         text-anchor="start"
         style="white-space:pre;fill:#ffffff"
         direction="ltr"
         id="text758">release/v0.3.1</text>
    </g>
    <g
       stroke-linecap="round"
       id="g774"
       transform="translate(-53.938655,-1783.4833)">
      <g
         transform="translate(277.5579,3404.0698)"
         id="g764">
        <path
           d="m -1.17,0.44 c 22.79,0 115.04,-0.56 138.1,-0.76 M 0.42,-0.38 C 23.57,-0.65 116.6,-1.44 139.21,-1.83"
           stroke="#000000"
           stroke-width="4"
           fill="none"
           id="path762" />
      </g>
      <g
         transform="translate(277.5579,3404.0698)"
         id="g768">
        <path
           d="M 111.88,7.42 C 122,4.73 130.14,2.4 137.3,-0.54 m -26.55,8.65 c 9.2,-2.37 16.51,-5.02 28.88,-9.55"
           stroke="#000000"
           stroke-width="4"
           fill="none"
           id="path766" />
      </g>
      <g
         transform="translate(277.5579,3404.0698)"
         id="g772">
        <path
           d="m 111.63,-13.1 c 10.14,3.79 18.37,7.95 25.67,12.56 m -26.8,-11.87 c 9.46,3.43 16.84,6.58 29.13,10.97"
           stroke="#000000"
           stroke-width="4"
           fill="none"
           id="path770" />
      </g>
    </g>
    <g
       stroke-linecap="round"
       id="g788"
       transform="translate(-53.938655,-1783.4833)">
      <g
         transform="translate(631.58342,3405.4797)"
         id="g778">
        <path
           d="M 0.44,-0.81 C 21.3,-1.2 104.22,-3.14 124.89,-3.49 M -0.79,1.38 C 20.05,1.24 103.74,-1.77 124.55,-2.26"
           stroke="#000000"
           stroke-width="4"
           fill="none"
           id="path776" />
      </g>
      <g
         transform="translate(631.58342,3405.4797)"
         id="g782">
        <path
           d="m 95.33,10.8 c 8.13,-3.86 16.8,-10.05 30.51,-13.41 M 96.02,9.82 c 11.64,-4.87 22.93,-9.16 28.92,-11.41"
           stroke="#000000"
           stroke-width="4"
           fill="none"
           id="path780" />
      </g>
      <g
         transform="translate(631.58342,3405.4797)"
         id="g786">
        <path
           d="m 94.71,-9.71 c 8.1,1.75 16.94,1.19 31.13,7.1 M 95.4,-10.69 c 11.97,3.18 23.5,6.94 29.54,9.1"
           stroke="#000000"
           stroke-width="4"
           fill="none"
           id="path784" />
      </g>
    </g>
    <g
       stroke-linecap="round"
       transform="translate(706.35906,1587.0589)"
       id="g794">
      <path
         d="m 16.55,0.73 177.6,1.22 8.47,0.44 6.81,0.32 5.57,11.1 0.85,42.55 -3.81,5.9 -3.32,9.3 -12.52,3.3 L 19.33,74.78 11.75,71.57 2.21,67.19 -1.45,60.51 2.25,13.82 4.82,5.63 10.56,1.19 19.98,1.93"
         stroke="none"
         stroke-width="0"
         fill="#82c91e"
         id="path790" />
      <path
         d="m 18.5,0 m 0,0 c 62.27,0.19 124.12,-0.69 177,0 m -177,0 c 69.6,0.74 141.61,0.59 177,0 m 0,0 c 10.63,0.55 18.8,5.21 18.5,18.5 M 195.5,0 c 11.13,-1.89 19.35,6.87 18.5,18.5 m 0,0 c -0.74,6.16 -0.77,18.16 0,37 m 0,-37 c -0.11,11.39 -0.77,21.96 0,37 m 0,0 c 0.13,14 -4.83,18.1 -18.5,18.5 M 214,55.5 c -1.17,11.44 -7.63,18.82 -18.5,18.5 m 0,0 c -46.67,-1.02 -95.51,0.98 -177,0 m 177,0 c -55.1,1.91 -109.01,1.38 -177,0 m 0,0 C 6.59,74.76 0.97,67.09 0,55.5 M 18.5,74 C 6.24,73.53 0.94,69.95 0,55.5 m 0,0 C -0.37,42.15 1.31,30.98 0,18.5 m 0,37 c 1.02,-9.71 0.23,-21.23 0,-37 m 0,0 C 0.96,4.75 5.69,0.77 18.5,0 M 0,18.5 C 0.52,5.96 6.94,0.89 18.5,0"
         stroke="#5c940d"
         stroke-width="4"
         fill="none"
         id="path792" />
    </g>
    <g
       transform="translate(780.85906,1598.8446)"
       id="g798">
      <text
         x="0"
         y="33"
         font-family="'FG Virgil'"
         font-size="36px"
         fill="#000000"
         text-anchor="start"
         style="white-space:pre;fill:#ffffff"
         direction="ltr"
         id="text796">main</text>
    </g>
    <g
       stroke-linecap="round"
       transform="translate(899.35906,1635.0589)"
       id="g804">
      <path
         d="m 54.55,0.93 c 9.48,-0.5 21.65,0.53 29.68,3.32 8.04,2.79 14.65,8.69 18.52,13.43 3.86,4.75 6.01,10.13 4.67,15.03 -1.33,4.89 -6.24,10.5 -12.66,14.33 -6.42,3.82 -16.3,7.34 -25.85,8.6 C 59.36,56.89 46.79,56.31 37.46,54.56 28.13,52.82 19.04,48.84 12.93,45.18 6.81,41.52 2.11,37.43 0.79,32.59 -0.53,27.75 0.83,20.84 5.02,16.13 9.2,11.42 16.44,6.84 25.92,4.32 35.4,1.81 54.64,1.4 61.92,1.04 69.2,0.68 69.58,1.83 69.61,2.17 M 47.71,1.62 C 56.74,0.7 69.24,0.01 77.84,1.9 c 8.6,1.89 16.23,6.7 21.48,11.05 5.26,4.35 10.41,9.82 10.04,15.05 -0.37,5.24 -6.53,12.18 -12.27,16.38 C 91.34,48.57 83.81,51.49 74.9,53.15 66,54.8 53.16,55.02 43.64,54.32 34.12,53.62 24.97,52.18 17.77,48.96 10.57,45.73 3.01,40.04 0.47,34.98 -2.08,29.92 -0.56,23.49 2.47,18.6 5.5,13.71 10.78,8.73 18.65,5.62 26.52,2.51 44.6,0.6 49.68,-0.06 54.76,-0.71 49.35,0.99 49.13,1.7"
         stroke="#5c940d"
         stroke-width="2"
         fill="none"
         id="path802" />
    </g>
    <g
       transform="translate(920.35906,1650.0589)"
       id="g808">
      <text
         x="0"
         y="20"
         font-family="'Cascadia Code'"
         font-size="20px"
         fill="#000000"
         text-anchor="start"
         style="white-space:pre;fill:#82c91e;fill-opacity:1"
         direction="ltr"
         id="text806">v0.3.1</text>
    </g>
  </g>
  <g
     transform="translate(145.5732,67.21842)"
     id="g1104"
     style="fill:#808080">
    <text
       x="0"
       y="25"
       font-family="'FG Virgil'"
       font-size="28px"
       fill="#000000"
       text-anchor="start"
       style="white-space:pre;fill:#808080"
       direction="ltr"
       id="text1098">- História D: correção de bug</text>
    <text
       x="0"
       y="61"
       font-family="'FG Virgil'"
       font-size="28px"
       fill="#000000"
       text-anchor="start"
       style="white-space:pre;fill:#808080"
       direction="ltr"
       id="text1100">- homologação da funcionalidade da história C</text>
    <text
       x="0"
       y="97"
       font-family="'FG Virgil'"
       font-size="28px"
       fill="#000000"
       text-anchor="start"
       style="white-space:pre;fill:#808080"
       direction="ltr"
       id="text1102">- funcionalidade da história B disponível em produção</text>
  </g>
  <g
     id="g48949"
     transform="translate(-386.58482,-210.22138)">
    <g
       stroke-linecap="round"
       transform="translate(390.36959,1244.4739)"
       id="g812"
       style="fill:#808080;stroke:#666666;stroke-opacity:1">
      <path
         d="m -2.66,1.8 c 83.28,0.66 166.07,-3.04 323.3,0.91 M 0.58,0.54 c 99.75,-3.35 197.95,-2.18 320.71,-0.07 m 2.77,-0.22 c -2.23,111.14 0.72,219.63 1.46,273.97 M 321.98,1.51 c 0.63,73.77 -0.2,150.45 1.96,271.66 m -2.77,-0.43 c -70.23,3.16 -136.35,-0.12 -321.09,0.92 m 323.78,0.33 c -85.24,-0.63 -171.02,-0.39 -325.2,1.37 m 0.73,-2.74 C -4.76,188.19 -3.12,105.16 -2.02,-0.49 m 3,274.78 C 2.56,182.31 0.1,89.02 -1.1,0.09"
         stroke="#000000"
         stroke-width="1"
         fill="none"
         id="path810"
         style="fill:#808080;stroke:#666666;stroke-opacity:1" />
    </g>
    <g
       transform="translate(441.61959,1359.4199)"
       id="g816"
       style="fill:#808080">
      <text
         x="0"
         y="25"
         font-family="'FG Virgil'"
         font-size="28px"
         fill="#000000"
         text-anchor="start"
         style="white-space:pre;fill:#808080"
         direction="ltr"
         id="text814">Desenvolvimento</text>
    </g>
    <g
       transform="translate(495.36959,1416.4199)"
       id="g820">
      <text
         x="0"
         y="28"
         font-family="'Cascadia Code'"
         font-size="28px"
         fill="#c92a2a"
         text-anchor="start"
         style="white-space:pre"
         direction="ltr"
         id="text818">v0.3.1</text>
    </g>
    <g
       stroke-linecap="round"
       transform="translate(666.61962,1195.6699)"
       id="g824"
       style="fill:none;stroke:#666666;stroke-opacity:1">
      <path
         d="m 208.43,0.67 c 41.12,36.38 85.49,75.35 205.86,184.99 M 206.51,-0.15 c 71.86,61.63 142.62,126.28 207.11,185.23 m 1.27,1.41 C 342.27,250.9 269.01,313.44 207.16,367.76 M 413.21,184.43 c -53.5,49.87 -108.66,97.4 -206,184.44 m 0.36,0.35 C 154.31,321.16 103.09,274.22 -1.5,184.4 m 209,184.11 C 125.47,295.72 43.09,223.39 0.65,185.52 m -1.63,-0.3 C 58.23,132.78 116.48,82.55 206.43,-0.47 M 0.58,184.27 C 75.53,116.26 150.29,49.79 207.29,0.38"
         stroke="#000000"
         stroke-width="1"
         fill="none"
         id="path822"
         style="fill:none;stroke:#666666;stroke-opacity:1" />
    </g>
    <g
       transform="translate(789.11962,1356.6699)"
       id="g828"
       style="fill:#808080">
      <text
         x="0"
         y="25"
         font-family="'FG Virgil'"
         font-size="28px"
         fill="#000000"
         text-anchor="start"
         style="white-space:pre;fill:#808080"
         direction="ltr"
         id="text826">Homologação</text>
    </g>
    <g
       transform="translate(827.86962,1419.9199)"
       id="g832">
      <text
         x="0"
         y="28"
         font-family="'Cascadia Code'"
         font-size="28px"
         fill="#e67700"
         text-anchor="start"
         style="white-space:pre"
         direction="ltr"
         id="text830">v0.3.0</text>
    </g>
    <g
       stroke-linecap="round"
       transform="translate(1112.9624,1221.0641)"
       id="g836"
       style="stroke:#666666;stroke-width:2;stroke-miterlimit:4;stroke-dasharray:none;stroke-opacity:1">
      <path
         d="m 323.75,161.87 c 0,4.04 -0.15,8.08 -0.45,12.1 -0.3,4.02 -0.76,8.04 -1.36,12.03 -0.6,3.99 -1.35,7.96 -2.25,11.9 -0.9,3.93 -1.94,7.84 -3.13,11.69 -1.19,3.85 -2.53,7.67 -4,11.42 -1.47,3.76 -3.09,7.47 -4.84,11.1 -1.75,3.63 -3.64,7.21 -5.66,10.7 -2.01,3.49 -4.17,6.92 -6.44,10.25 -2.27,3.33 -4.67,6.59 -7.19,9.74 -2.51,3.15 -5.15,6.22 -7.89,9.18 -2.74,2.95 -5.61,5.82 -8.56,8.56 -2.96,2.74 -6.03,5.38 -9.18,7.89 -3.15,2.52 -6.41,4.92 -9.74,7.19 -3.33,2.27 -6.76,4.43 -10.25,6.44 -3.49,2.02 -7.07,3.91 -10.7,5.66 -3.63,1.75 -7.34,3.37 -11.1,4.84 -3.75,1.47 -7.57,2.81 -11.42,4 -3.85,1.19 -7.76,2.23 -11.69,3.13 -3.94,0.9 -7.91,1.65 -11.9,2.25 -3.99,0.6 -8.01,1.06 -12.03,1.36 -4.02,0.3 -8.06,0.45 -12.1,0.45 -4.03,0 -8.07,-0.15 -12.09,-0.45 -4.02,-0.3 -8.04,-0.76 -12.03,-1.36 -3.99,-0.6 -7.96,-1.35 -11.9,-2.25 -3.93,-0.9 -7.84,-1.94 -11.69,-3.13 -3.85,-1.19 -7.67,-2.53 -11.42,-4 -3.76,-1.47 -7.47,-3.09 -11.1,-4.84 -3.63,-1.75 -7.21,-3.64 -10.7,-5.66 -3.49,-2.01 -6.92,-4.17 -10.25,-6.44 -3.33,-2.27 -6.59,-4.67 -9.74,-7.19 -3.15,-2.51 -6.22,-5.15 -9.18,-7.89 -2.95,-2.74 -5.82,-5.61 -8.56,-8.56 -2.74,-2.96 -5.38,-6.03 -7.89,-9.18 -2.52,-3.15 -4.92,-6.41 -7.19,-9.74 -2.27,-3.33 -4.43,-6.76 -6.44,-10.25 -2.02,-3.49 -3.91,-7.07 -5.66,-10.7 -1.75,-3.63 -3.37,-7.34 -4.84,-11.1 -1.47,-3.75 -2.81,-7.57 -4,-11.42 C 6,205.74 4.96,201.83 4.06,197.9 3.16,193.96 2.41,189.99 1.81,186 1.21,182.01 0.75,177.99 0.45,173.97 0.15,169.95 0,165.91 0,161.88 c 0,-4.04 0.15,-8.08 0.45,-12.1 0.3,-4.02 0.76,-8.04 1.36,-12.03 0.6,-3.99 1.35,-7.96 2.25,-11.9 0.9,-3.93 1.94,-7.84 3.13,-11.69 1.19,-3.85 2.53,-7.67 4,-11.42 1.47,-3.76 3.09,-7.47 4.84,-11.1 1.75,-3.63 3.64,-7.21 5.66,-10.7 2.01,-3.49 4.17,-6.92 6.44,-10.25 2.27,-3.33 4.67,-6.59 7.19,-9.74 2.51,-3.15 5.15,-6.22 7.89,-9.18 2.74,-2.95 5.61,-5.82 8.56,-8.56 2.96,-2.74 6.03,-5.38 9.18,-7.89 3.15,-2.52 6.41,-4.92 9.74,-7.19 3.33,-2.27 6.76,-4.43 10.25,-6.44 3.49,-2.02 7.07,-3.91 10.7,-5.66 3.63,-1.75 7.34,-3.37 11.1,-4.84 3.75,-1.47 7.57,-2.81 11.42,-4 3.85,-1.19 7.76,-2.23 11.69,-3.13 3.94,-0.9 7.91,-1.65 11.9,-2.25 3.99,-0.6 8.01,-1.06 12.03,-1.36 4.02,-0.3 8.06,-0.45 12.09,-0.45 4.04,0 8.08,0.15 12.1,0.45 4.02,0.3 8.04,0.76 12.03,1.36 3.99,0.6 7.96,1.35 11.9,2.25 3.93,0.9 7.84,1.94 11.69,3.13 3.85,1.19 7.67,2.53 11.42,4 3.76,1.47 7.47,3.09 11.1,4.84 3.63,1.75 7.21,3.64 10.7,5.66 3.49,2.01 6.92,4.17 10.25,6.44 3.33,2.27 6.59,4.67 9.74,7.19 3.15,2.51 6.22,5.15 9.18,7.89 2.95,2.74 5.82,5.61 8.56,8.56 2.74,2.96 5.38,6.03 7.89,9.18 2.52,3.15 4.92,6.41 7.19,9.74 2.27,3.33 4.43,6.76 6.44,10.25 2.02,3.49 3.91,7.07 5.66,10.7 1.75,3.63 3.37,7.34 4.84,11.1 1.47,3.75 2.81,7.57 4,11.42 1.19,3.85 2.23,7.76 3.13,11.69 0.9,3.94 1.65,7.91 2.25,11.9 0.6,3.99 1.06,8.01 1.36,12.03 0.3,4.02 0.45,8.06 0.45,12.09"
         stroke="#000000"
         stroke-width="1"
         fill="none"
         id="path834"
         style="stroke:#666666;stroke-width:2;stroke-miterlimit:4;stroke-dasharray:none;stroke-opacity:1" />
    </g>
    <g
       transform="translate(1216.7124,1358.5057)"
       id="g840"
       style="fill:#808080;fill-opacity:1;stroke:none;stroke-opacity:1">
      <text
         x="0"
         y="25"
         font-family="'FG Virgil'"
         font-size="28px"
         fill="#000000"
         text-anchor="start"
         style="white-space:pre;fill:#808080;fill-opacity:1;stroke:none;stroke-opacity:1"
         direction="ltr"
         id="text838">Produção</text>
    </g>
    <g
       transform="translate(1231.2124,1419.9199)"
       id="g844">
      <text
         x="0"
         y="28"
         font-family="'Cascadia Code'"
         font-size="28px"
         fill="#5c940d"
         text-anchor="start"
         style="white-space:pre"
         direction="ltr"
         id="text842">v0.2.0</text>
    </g>
  </g>
  <g
     id="g66496"
     transform="translate(-388.40741,-73.333336)">
    <g
       stroke-linecap="round"
       transform="translate(391.63979,1630.3981)"
       id="g1056"
       style="fill:#808080;stroke:#666666;stroke-opacity:1">
      <path
         d="M -2.18,1.64 C 97.34,-2.45 197.1,-1.65 322.42,0.05 M -0.37,0.11 c 74.8,-2.86 152.31,-2.41 322.94,-1.36 m 0.9,3.03 c 1.8,63.75 -1.85,129.77 -2.41,269.6 m 2.37,-271.7 c 1.34,93.86 0.88,188.3 -0.17,273.97 m 1.07,2.99 C 228.59,272.21 130.84,273.74 0.64,273.7 m 321.25,-0.78 c -108.12,-2.64 -217.22,-2.81 -322.03,2.61 m 2.81,-4.14 C 4.9,215.24 5.41,159.71 -0.08,-0.63 M -0.85,275.16 C -2.13,199.53 -1.68,128.04 1.24,1.51"
         stroke="#000000"
         stroke-width="1"
         fill="none"
         id="path1054"
         style="fill:#808080;stroke:#666666;stroke-opacity:1" />
    </g>
    <g
       transform="translate(442.88979,1745.3442)"
       id="g1060"
       style="fill:#808080">
      <text
         x="0"
         y="25"
         font-family="'FG Virgil'"
         font-size="28px"
         fill="#000000"
         text-anchor="start"
         style="white-space:pre;fill:#808080"
         direction="ltr"
         id="text1058">Desenvolvimento</text>
    </g>
    <g
       transform="translate(496.63979,1802.3442)"
       id="g1064">
      <text
         x="0"
         y="28"
         font-family="'Cascadia Code'"
         font-size="28px"
         fill="#c92a2a"
         text-anchor="start"
         style="white-space:pre"
         direction="ltr"
         id="text1062">v0.3.1</text>
    </g>
    <g
       stroke-linecap="round"
       transform="translate(667.88982,1581.5942)"
       id="g1068"
       style="fill:none;stroke:#666666;stroke-opacity:1">
      <path
         d="M 207.89,0.42 C 255.01,41.45 299.54,81.5 414.2,186.23 M 207.47,0.54 c 56.89,51.28 112.01,101.34 206.38,184.44 m 0.31,-0.69 C 347.14,246.29 276.2,308.5 207.72,369.07 M 413.88,184.91 c -74.14,66.91 -149.57,132.67 -206.65,183.5 m -0.25,0.37 C 130.89,303.03 54.07,236.02 -0.2,183.88 M 206.63,368.11 C 154.76,321.1 102.88,273.34 -0.53,185.13 m -0.63,1.11 C 80.53,112.55 160.73,40.69 207.48,-0.45 M -0.74,184.83 C 49.94,141.09 101.31,94.61 207.75,0.28"
         stroke="#000000"
         stroke-width="1"
         fill="none"
         id="path1066"
         style="fill:none;stroke:#666666;stroke-opacity:1" />
    </g>
    <g
       transform="translate(790.38982,1742.5942)"
       id="g1072"
       style="fill:#808080">
      <text
         x="0"
         y="25"
         font-family="'FG Virgil'"
         font-size="28px"
         fill="#000000"
         text-anchor="start"
         style="white-space:pre;fill:#808080"
         direction="ltr"
         id="text1070">Homologação</text>
    </g>
    <g
       transform="translate(829.13982,1805.8442)"
       id="g1076">
      <text
         x="0"
         y="28"
         font-family="'Cascadia Code'"
         font-size="28px"
         fill="#e67700"
         text-anchor="start"
         style="white-space:pre"
         direction="ltr"
         id="text1074">v0.3.1</text>
    </g>
    <g
       stroke-linecap="round"
       transform="translate(1114.2326,1606.9887)"
       id="g1080"
       style="stroke:#666666;stroke-width:2;stroke-miterlimit:4;stroke-dasharray:none;stroke-opacity:1">
      <path
         d="m 323.75,161.87 c 0,4.04 -0.15,8.08 -0.45,12.1 -0.3,4.02 -0.76,8.04 -1.36,12.03 -0.6,3.99 -1.35,7.96 -2.25,11.9 -0.9,3.93 -1.94,7.84 -3.13,11.69 -1.19,3.85 -2.53,7.67 -4,11.42 -1.47,3.76 -3.09,7.47 -4.84,11.1 -1.75,3.63 -3.64,7.21 -5.66,10.7 -2.01,3.49 -4.17,6.92 -6.44,10.25 -2.27,3.33 -4.67,6.59 -7.19,9.74 -2.51,3.15 -5.15,6.22 -7.89,9.18 -2.74,2.95 -5.61,5.82 -8.56,8.56 -2.96,2.74 -6.03,5.38 -9.18,7.89 -3.15,2.52 -6.41,4.92 -9.74,7.19 -3.33,2.27 -6.76,4.43 -10.25,6.44 -3.49,2.02 -7.07,3.91 -10.7,5.66 -3.63,1.75 -7.34,3.37 -11.1,4.84 -3.75,1.47 -7.57,2.81 -11.42,4 -3.85,1.19 -7.76,2.23 -11.69,3.13 -3.94,0.9 -7.91,1.65 -11.9,2.25 -3.99,0.6 -8.01,1.06 -12.03,1.36 -4.02,0.3 -8.06,0.45 -12.1,0.45 -4.03,0 -8.07,-0.15 -12.09,-0.45 -4.02,-0.3 -8.04,-0.76 -12.03,-1.36 -3.99,-0.6 -7.96,-1.35 -11.9,-2.25 -3.93,-0.9 -7.84,-1.94 -11.69,-3.13 -3.85,-1.19 -7.67,-2.53 -11.42,-4 -3.76,-1.47 -7.47,-3.09 -11.1,-4.84 -3.63,-1.75 -7.21,-3.64 -10.7,-5.66 -3.49,-2.01 -6.92,-4.17 -10.25,-6.44 -3.33,-2.27 -6.59,-4.67 -9.74,-7.19 -3.15,-2.51 -6.22,-5.15 -9.18,-7.89 -2.95,-2.74 -5.82,-5.61 -8.56,-8.56 -2.74,-2.96 -5.38,-6.03 -7.89,-9.18 -2.52,-3.15 -4.92,-6.41 -7.19,-9.74 -2.27,-3.33 -4.43,-6.76 -6.44,-10.25 -2.02,-3.49 -3.91,-7.07 -5.66,-10.7 -1.75,-3.63 -3.37,-7.34 -4.84,-11.1 -1.47,-3.75 -2.81,-7.57 -4,-11.42 C 6,205.74 4.96,201.83 4.06,197.9 3.16,193.96 2.41,189.99 1.81,186 1.21,182.01 0.75,177.99 0.45,173.97 0.15,169.95 0,165.91 0,161.88 c 0,-4.04 0.15,-8.08 0.45,-12.1 0.3,-4.02 0.76,-8.04 1.36,-12.03 0.6,-3.99 1.35,-7.96 2.25,-11.9 0.9,-3.93 1.94,-7.84 3.13,-11.69 1.19,-3.85 2.53,-7.67 4,-11.42 1.47,-3.76 3.09,-7.47 4.84,-11.1 1.75,-3.63 3.64,-7.21 5.66,-10.7 2.01,-3.49 4.17,-6.92 6.44,-10.25 2.27,-3.33 4.67,-6.59 7.19,-9.74 2.51,-3.15 5.15,-6.22 7.89,-9.18 2.74,-2.95 5.61,-5.82 8.56,-8.56 2.96,-2.74 6.03,-5.38 9.18,-7.89 3.15,-2.52 6.41,-4.92 9.74,-7.19 3.33,-2.27 6.76,-4.43 10.25,-6.44 3.49,-2.02 7.07,-3.91 10.7,-5.66 3.63,-1.75 7.34,-3.37 11.1,-4.84 3.75,-1.47 7.57,-2.81 11.42,-4 3.85,-1.19 7.76,-2.23 11.69,-3.13 3.94,-0.9 7.91,-1.65 11.9,-2.25 3.99,-0.6 8.01,-1.06 12.03,-1.36 4.02,-0.3 8.06,-0.45 12.09,-0.45 4.04,0 8.08,0.15 12.1,0.45 4.02,0.3 8.04,0.76 12.03,1.36 3.99,0.6 7.96,1.35 11.9,2.25 3.93,0.9 7.84,1.94 11.69,3.13 3.85,1.19 7.67,2.53 11.42,4 3.76,1.47 7.47,3.09 11.1,4.84 3.63,1.75 7.21,3.64 10.7,5.66 3.49,2.01 6.92,4.17 10.25,6.44 3.33,2.27 6.59,4.67 9.74,7.19 3.15,2.51 6.22,5.15 9.18,7.89 2.95,2.74 5.82,5.61 8.56,8.56 2.74,2.96 5.38,6.03 7.89,9.18 2.52,3.15 4.92,6.41 7.19,9.74 2.27,3.33 4.43,6.76 6.44,10.25 2.02,3.49 3.91,7.07 5.66,10.7 1.75,3.63 3.37,7.34 4.84,11.1 1.47,3.75 2.81,7.57 4,11.42 1.19,3.85 2.23,7.76 3.13,11.69 0.9,3.94 1.65,7.91 2.25,11.9 0.6,3.99 1.06,8.01 1.36,12.03 0.3,4.02 0.45,8.06 0.45,12.09"
         stroke="#000000"
         stroke-width="1"
         fill="none"
         id="path1078"
         style="stroke:#666666;stroke-width:2;stroke-miterlimit:4;stroke-dasharray:none;stroke-opacity:1" />
    </g>
    <g
       transform="translate(1217.9826,1744.43)"
       id="g1084"
       style="fill:#808080;fill-opacity:1;stroke:none;stroke-opacity:1">
      <text
         x="0"
         y="25"
         font-family="'FG Virgil'"
         font-size="28px"
         fill="#000000"
         text-anchor="start"
         style="white-space:pre;fill:#808080;fill-opacity:1;stroke:none;stroke-opacity:1"
         direction="ltr"
         id="text1082">Produção</text>
    </g>
    <g
       transform="translate(1232.4826,1805.8442)"
       id="g1088">
      <text
         x="0"
         y="28"
         font-family="'Cascadia Code'"
         font-size="28px"
         fill="#5c940d"
         text-anchor="start"
         style="white-space:pre"
         direction="ltr"
         id="text1086">v0.3.0</text>
    </g>
  </g>
  <g
     id="g47687"
     transform="translate(-1465.151,-436.99501)">
    <g
       transform="translate(1519.8234,1076.5233)"
       id="g712"
       style="fill:#808080">
      <text
         x="0"
         y="25"
         font-family="'FG Virgil'"
         font-size="28px"
         fill="#000000"
         text-anchor="start"
         style="white-space:pre;fill:#808080"
         direction="ltr"
         id="text710">Desenvolvimento</text>
    </g>
    <g
       transform="translate(1573.5734,1133.5233)"
       id="g716">
      <text
         x="0"
         y="28"
         font-family="'Cascadia Code'"
         font-size="28px"
         fill="#c92a2a"
         text-anchor="start"
         style="white-space:pre"
         direction="ltr"
         id="text714">v0.3.0</text>
    </g>
    <g
       transform="translate(1867.3234,1073.7733)"
       id="g724"
       style="fill:#808080">
      <text
         x="0"
         y="25"
         font-family="'FG Virgil'"
         font-size="28px"
         fill="#000000"
         text-anchor="start"
         style="white-space:pre;fill:#808080"
         direction="ltr"
         id="text722">Homologação</text>
    </g>
    <g
       transform="translate(1906.0734,1137.0233)"
       id="g728">
      <text
         x="0"
         y="28"
         font-family="'Cascadia Code'"
         font-size="28px"
         fill="#e67700"
         text-anchor="start"
         style="white-space:pre"
         direction="ltr"
         id="text726">v0.2.0</text>
    </g>
    <g
       stroke-linecap="round"
       transform="translate(1468.5734,961.57733)"
       id="g708"
       style="fill:#808080;stroke:#666666;stroke-opacity:1">
      <path
         d="M -0.96,-1.04 C 90.32,-1.51 185.81,-4.02 324.31,2.19 M 0.48,1.24 c 124.67,-4.6 250.22,-6.01 320.77,0 m -1.36,-3.17 c -1,77.56 -1.88,154.19 3.41,277.97 M 321.37,-1.22 c -1.01,60.98 0.62,118.93 2.67,275.59 m -1.1,-2.8 c -99.39,5.07 -194.16,5.05 -325.5,0.02 M 323.8,274 c -93.21,4.65 -184.76,2.21 -323.82,-0.66 M -1.72,274 C -1.65,207.3 -2.18,137.47 0.97,-0.41 M 0.27,275.6 C 0.2,196.98 0.27,121.23 0.04,-1.38"
         stroke="#000000"
         stroke-width="1"
         fill="none"
         id="path706"
         style="fill:#808080;stroke:#666666;stroke-opacity:1" />
    </g>
    <g
       stroke-linecap="round"
       transform="translate(1744.8234,912.77333)"
       id="g720"
       style="fill:none;stroke:#666666;stroke-opacity:1">
      <path
         d="m 208.19,0.26 c 53,51.24 109.34,100.75 205.15,186.15 M 207.41,-0.09 c 69.67,61.63 139.92,124.06 205.91,185.19 m 0.17,-1.15 C 368.2,224.44 324.51,262.4 206.72,368.67 M 414.15,185.12 c -48.55,40.94 -95.3,81.9 -206.92,184.08 m -0.33,0.16 C 142.87,308.43 76.18,251.61 1.17,186.15 M 207.62,369.11 C 125.06,296.65 43.93,224.03 0.24,185.68 m 0.86,-1.1 C 51.46,140.4 101.12,94.33 206.86,-0.98 M -0.65,184.94 C 63.86,126.5 129.45,68.39 207.6,0.74"
         stroke="#000000"
         stroke-width="1"
         fill="none"
         id="path718"
         style="fill:none;stroke:#666666;stroke-opacity:1" />
    </g>
    <g
       stroke-linecap="round"
       transform="translate(2191.1662,938.16753)"
       id="g732"
       style="stroke:#666666;stroke-width:2;stroke-miterlimit:4;stroke-dasharray:none;stroke-opacity:1">
      <path
         d="m 323.75,161.87 c 0,4.04 -0.15,8.08 -0.45,12.1 -0.3,4.02 -0.76,8.04 -1.36,12.03 -0.6,3.99 -1.35,7.96 -2.25,11.9 -0.9,3.93 -1.94,7.84 -3.13,11.69 -1.19,3.85 -2.53,7.67 -4,11.42 -1.47,3.76 -3.09,7.47 -4.84,11.1 -1.75,3.63 -3.64,7.21 -5.66,10.7 -2.01,3.49 -4.17,6.92 -6.44,10.25 -2.27,3.33 -4.67,6.59 -7.19,9.74 -2.51,3.15 -5.15,6.22 -7.89,9.18 -2.74,2.95 -5.61,5.82 -8.56,8.56 -2.96,2.74 -6.03,5.38 -9.18,7.89 -3.15,2.52 -6.41,4.92 -9.74,7.19 -3.33,2.27 -6.76,4.43 -10.25,6.44 -3.49,2.02 -7.07,3.91 -10.7,5.66 -3.63,1.75 -7.34,3.37 -11.1,4.84 -3.75,1.47 -7.57,2.81 -11.42,4 -3.85,1.19 -7.76,2.23 -11.69,3.13 -3.94,0.9 -7.91,1.65 -11.9,2.25 -3.99,0.6 -8.01,1.06 -12.03,1.36 -4.02,0.3 -8.06,0.45 -12.1,0.45 -4.03,0 -8.07,-0.15 -12.09,-0.45 -4.02,-0.3 -8.04,-0.76 -12.03,-1.36 -3.99,-0.6 -7.96,-1.35 -11.9,-2.25 -3.93,-0.9 -7.84,-1.94 -11.69,-3.13 -3.85,-1.19 -7.67,-2.53 -11.42,-4 -3.76,-1.47 -7.47,-3.09 -11.1,-4.84 -3.63,-1.75 -7.21,-3.64 -10.7,-5.66 -3.49,-2.01 -6.92,-4.17 -10.25,-6.44 -3.33,-2.27 -6.59,-4.67 -9.74,-7.19 -3.15,-2.51 -6.22,-5.15 -9.18,-7.89 -2.95,-2.74 -5.82,-5.61 -8.56,-8.56 -2.74,-2.96 -5.38,-6.03 -7.89,-9.18 -2.52,-3.15 -4.92,-6.41 -7.19,-9.74 -2.27,-3.33 -4.43,-6.76 -6.44,-10.25 -2.02,-3.49 -3.91,-7.07 -5.66,-10.7 -1.75,-3.63 -3.37,-7.34 -4.84,-11.1 -1.47,-3.75 -2.81,-7.57 -4,-11.42 C 6,205.74 4.96,201.83 4.06,197.9 3.16,193.96 2.41,189.99 1.81,186 1.21,182.01 0.75,177.99 0.45,173.97 0.15,169.95 0,165.91 0,161.88 c 0,-4.04 0.15,-8.08 0.45,-12.1 0.3,-4.02 0.76,-8.04 1.36,-12.03 0.6,-3.99 1.35,-7.96 2.25,-11.9 0.9,-3.93 1.94,-7.84 3.13,-11.69 1.19,-3.85 2.53,-7.67 4,-11.42 1.47,-3.76 3.09,-7.47 4.84,-11.1 1.75,-3.63 3.64,-7.21 5.66,-10.7 2.01,-3.49 4.17,-6.92 6.44,-10.25 2.27,-3.33 4.67,-6.59 7.19,-9.74 2.51,-3.15 5.15,-6.22 7.89,-9.18 2.74,-2.95 5.61,-5.82 8.56,-8.56 2.96,-2.74 6.03,-5.38 9.18,-7.89 3.15,-2.52 6.41,-4.92 9.74,-7.19 3.33,-2.27 6.76,-4.43 10.25,-6.44 3.49,-2.02 7.07,-3.91 10.7,-5.66 3.63,-1.75 7.34,-3.37 11.1,-4.84 3.75,-1.47 7.57,-2.81 11.42,-4 3.85,-1.19 7.76,-2.23 11.69,-3.13 3.94,-0.9 7.91,-1.65 11.9,-2.25 3.99,-0.6 8.01,-1.06 12.03,-1.36 4.02,-0.3 8.06,-0.45 12.09,-0.45 4.04,0 8.08,0.15 12.1,0.45 4.02,0.3 8.04,0.76 12.03,1.36 3.99,0.6 7.96,1.35 11.9,2.25 3.93,0.9 7.84,1.94 11.69,3.13 3.85,1.19 7.67,2.53 11.42,4 3.76,1.47 7.47,3.09 11.1,4.84 3.63,1.75 7.21,3.64 10.7,5.66 3.49,2.01 6.92,4.17 10.25,6.44 3.33,2.27 6.59,4.67 9.74,7.19 3.15,2.51 6.22,5.15 9.18,7.89 2.95,2.74 5.82,5.61 8.56,8.56 2.74,2.96 5.38,6.03 7.89,9.18 2.52,3.15 4.92,6.41 7.19,9.74 2.27,3.33 4.43,6.76 6.44,10.25 2.02,3.49 3.91,7.07 5.66,10.7 1.75,3.63 3.37,7.34 4.84,11.1 1.47,3.75 2.81,7.57 4,11.42 1.19,3.85 2.23,7.76 3.13,11.69 0.9,3.94 1.65,7.91 2.25,11.9 0.6,3.99 1.06,8.01 1.36,12.03 0.3,4.02 0.45,8.06 0.45,12.09"
         stroke="#000000"
         stroke-width="1"
         fill="none"
         id="path730"
         style="stroke:#666666;stroke-width:2;stroke-miterlimit:4;stroke-dasharray:none;stroke-opacity:1" />
    </g>
    <g
       transform="translate(2294.9162,1075.6091)"
       id="g736"
       style="fill:#808080;fill-opacity:1;stroke:none;stroke-opacity:1">
      <text
         x="0"
         y="25"
         font-family="'FG Virgil'"
         font-size="28px"
         fill="#000000"
         text-anchor="start"
         style="white-space:pre;fill:#808080;fill-opacity:1;stroke:none;stroke-opacity:1"
         direction="ltr"
         id="text734">Produção</text>
    </g>
    <g
       transform="translate(2309.4162,1137.0233)"
       id="g740">
      <text
         x="0"
         y="28"
         font-family="'Cascadia Code'"
         font-size="28px"
         fill="#5c940d"
         text-anchor="start"
         style="white-space:pre"
         direction="ltr"
         id="text738">v0.1.0</text>
    </g>
  </g>
  <text
     x="412.36002"
     y="1463.9463"
     font-family="'FG Virgil'"
     font-size="28px"
     fill="#000000"
     text-anchor="start"
     style="white-space:pre;fill:#808080"
     direction="ltr"
     id="text1106-9-1-1">Final da história</text>
</svg>
