<?xml version="1.0" encoding="UTF-8" standalone="no"?>
<svg
   version="1.1"
   viewBox="0 0 2124.2821 3553.4114"
   width="6372.8462"
   height="10660.234"
   id="svg1114"
   sodipodi:docname="semantic_version.svg"
   inkscape:version="1.1.2 (1:1.1+202202050950+0a00cf5339)"
   xmlns:inkscape="http://www.inkscape.org/namespaces/inkscape"
   xmlns:sodipodi="http://sodipodi.sourceforge.net/DTD/sodipodi-0.dtd"
   xmlns="http://www.w3.org/2000/svg"
   xmlns:svg="http://www.w3.org/2000/svg">
  <sodipodi:namedview
     id="namedview1116"
     pagecolor="#ffffff"
     bordercolor="#666666"
     borderopacity="1.0"
     inkscape:pageshadow="2"
     inkscape:pageopacity="0.0"
     inkscape:pagecheckerboard="0"
     showgrid="false"
     fit-margin-top="0"
     fit-margin-left="0"
     fit-margin-right="0"
     fit-margin-bottom="0"
     inkscape:zoom="0.14444586"
     inkscape:cx="3790.3475"
     inkscape:cy="2817.6647"
     inkscape:window-width="1920"
     inkscape:window-height="1016"
     inkscape:window-x="0"
     inkscape:window-y="27"
     inkscape:window-maximized="1"
     inkscape:current-layer="svg1114" />
  <!-- svg-source:excalidraw -->
  <defs
     id="defs4">
    <style
       id="style2">
      @font-face {
        font-family: &quot;Virgil&quot;;
        src: url(&quot;https://excalidraw.com/Virgil.woff2&quot;);
      }
      @font-face {
        font-family: &quot;Cascadia&quot;;
        src: url(&quot;https://excalidraw.com/Cascadia.woff2&quot;);
      }
    </style>
  </defs>
  <g
     transform="translate(722.82871,0.41597515)"
     id="g464"
     style="fill:#808080">
    <text
       x="0"
       y="40.838326"
       font-family="'FG Virgil'"
       font-size="36px"
       fill="#000000"
       text-anchor="start"
       style="font-size:44.4444px;white-space:pre;fill:#808080"
       direction="ltr"
       id="text462">VERSIONAMENTO SEMÂNTICO</text>
  </g>
  <g
     id="g9863">
    <g
       stroke-linecap="round"
       transform="translate(3.776713,380.45178)"
       id="g470">
      <path
         d="m 17.27,-0.35 178.49,2.06 9.14,0.6 6.26,3.64 2.63,6.61 0.14,42.45 -1.85,7.59 -4.43,9.4 -10.62,3.54 L 16.94,72.84 8.7,74.27 2.59,67.15 -0.24,60.87 0.81,15.43 4.22,4.24 l 6.8,-1.61 7.26,-3.3"
         stroke="none"
         stroke-width="0"
         fill="#fa5252"
         id="path466" />
      <path
         d="m 18.5,0 m 0,0 c 56.09,0.17 112.9,0.27 177,0 m -177,0 c 65.66,1.84 130.34,1.3 177,0 m 0,0 c 10.78,-1.39 16.61,6.58 18.5,18.5 M 195.5,0 c 10.72,-2.05 19.52,4.43 18.5,18.5 m 0,0 c 1.18,9.14 1.62,22.69 0,37 m 0,-37 c -0.59,8.53 -0.43,19.98 0,37 m 0,0 c -0.61,11.07 -7.18,20 -18.5,18.5 M 214,55.5 c -1.78,12.51 -4.02,20.63 -18.5,18.5 m 0,0 c -55.72,0.76 -113.09,0.58 -177,0 m 177,0 c -70.47,0.76 -139.83,-0.33 -177,0 m 0,0 C 5.54,75.39 1.38,69.81 0,55.5 M 18.5,74 C 8.37,75.53 0.54,67.82 0,55.5 m 0,0 c 0.26,-9.42 -0.82,-15.61 0,-37 m 0,37 c 0.52,-8.29 -0.64,-15.63 0,-37 m 0,0 C 0.04,7.65 8.06,1.35 18.5,0 M 0,18.5 C 2.28,5.49 7.93,0.28 18.5,0"
         stroke="#c92a2a"
         stroke-width="4"
         fill="none"
         id="path468" />
    </g>
    <g
       transform="translate(59.276715,398.73748)"
       id="g474">
      <text
         x="0"
         y="25"
         font-family="'FG Virgil'"
         font-size="28px"
         fill="#000000"
         text-anchor="start"
         style="white-space:pre;fill:#ffffff"
         direction="ltr"
         id="text472"><tspan
           style="fill:#ffffff"
           id="tspan5889">develop</tspan></text>
    </g>
    <g
       stroke-linecap="round"
       transform="translate(364.77672,380.45178)"
       id="g480">
      <path
         d="m 17.1,0.03 176.99,-1.23 9.05,3.93 6.04,0.34 5.8,11.38 -2.69,39.9 0.96,10.3 -5.25,7.86 -11.3,0.2 L 18.91,73.24 11.86,72.8 0.8,64.93 -1.11,61.23 1.84,13.83 4.28,4.2 10.46,1.68 17.73,0.91"
         stroke="none"
         stroke-width="0"
         fill="#fab005"
         id="path476" />
      <path
         d="m 18.5,0 m 0,0 c 51.47,0.33 105.11,-3.02 177,0 m -177,0 c 55.53,-0.55 111.75,0.82 177,0 m 0,0 c 12.95,1.23 18.3,5.85 18.5,18.5 M 195.5,0 c 14.25,1.79 17.53,4.52 18.5,18.5 m 0,0 c -0.8,12.15 -0.72,23.71 0,37 m 0,-37 c -0.17,13.74 0.12,29.59 0,37 m 0,0 C 213.54,66.3 208.4,72.02 195.5,74 M 214,55.5 c -0.7,13.73 -4.16,20.55 -18.5,18.5 m 0,0 c -49.38,1.83 -96.4,2.71 -177,0 m 177,0 c -67.68,0.05 -134.08,-0.22 -177,0 m 0,0 C 7.07,72.71 1.86,65.93 0,55.5 M 18.5,74 C 6.05,74.9 -0.15,69.16 0,55.5 m 0,0 C 1.43,40.73 -2.09,26.47 0,18.5 m 0,37 c 0.27,-9.32 0.9,-20.35 0,-37 m 0,0 C -1.02,5.6 7.25,0.78 18.5,0 M 0,18.5 C -0.94,6.23 7.94,1.17 18.5,0"
         stroke="#e67700"
         stroke-width="4"
         fill="none"
         id="path478" />
    </g>
    <g
       transform="translate(380.27672,400.73748)"
       id="g484">
      <text
         x="0"
         y="25"
         font-family="'FG Virgil'"
         font-size="28px"
         fill="#000000"
         text-anchor="start"
         style="white-space:pre;fill:#ffffff"
         direction="ltr"
         id="text482">release/v0.1.0</text>
    </g>
    <g
       stroke-linecap="round"
       id="g498"
       transform="translate(-53.938655,-1783.4833)">
      <g
         transform="translate(277.97556,2201.4676)"
         id="g488">
        <path
           d="M 1.13,-0.35 C 23.97,-0.75 114.45,-0.97 137.08,-1.3 M 0.26,-1.57 c 23.23,0.32 116,1.87 139.19,1.9"
           stroke="#000000"
           stroke-width="4"
           fill="none"
           id="path486" />
      </g>
      <g
         transform="translate(277.97556,2201.4676)"
         id="g492">
        <path
           d="m 110.58,9.21 c 9.34,-3.53 16.28,-3.43 28.73,-10.06 m -27.57,11.91 c 9.23,-3.29 19.22,-7.04 28.44,-11.6"
           stroke="#000000"
           stroke-width="4"
           fill="none"
           id="path490" />
      </g>
      <g
         transform="translate(277.97556,2201.4676)"
         id="g496">
        <path
           d="m 110.79,-11.31 c 9.48,2.7 16.35,9.03 28.52,10.46 m -27.36,-8.61 c 9.26,3.71 19.18,6.97 28.23,8.92"
           stroke="#000000"
           stroke-width="4"
           fill="none"
           id="path494" />
      </g>
    </g>
    <g
       stroke-linecap="round"
       id="g512"
       transform="translate(-53.938655,-1783.4833)">
      <g
         transform="translate(637.71537,2202.3557)"
         id="g502">
        <path
           d="M 1.19,-0.36 C 20.81,-0.93 97.32,-2.08 116.86,-2.48 M 0.36,-1.6 c 20.05,-0.44 99.02,0.69 118.61,0.69"
           stroke="#000000"
           stroke-width="4"
           fill="none"
           id="path500" />
      </g>
      <g
         transform="translate(637.71537,2202.3557)"
         id="g506">
        <path
           d="m 90.09,7.23 c 7.1,0.06 13.05,-2.4 28,-8.92 M 91.6,9.85 c 4.58,-3.45 9.82,-4.34 26.55,-10.43"
           stroke="#000000"
           stroke-width="4"
           fill="none"
           id="path504" />
      </g>
      <g
         transform="translate(637.71537,2202.3557)"
         id="g510">
        <path
           d="m 90.25,-13.29 c 7.22,4.74 13.13,6.96 27.84,11.6 m -26.33,-8.98 c 4.71,0.7 9.92,3.96 26.39,10.09"
           stroke="#000000"
           stroke-width="4"
           fill="none"
           id="path508" />
      </g>
    </g>
    <g
       stroke-linecap="round"
       transform="translate(706.77672,384.45178)"
       id="g518">
      <path
         d="m 18.55,0.52 176.18,0.39 8.71,-1.42 7.46,4.88 4.49,11.46 -3.07,40 -0.59,7.71 -5.93,6.66 -10.88,5.33 -175.81,-0.3 -8.9,-2.7 L 4.26,68.33 -0.56,58.4 0.63,13.84 5.82,3.88 10.83,0.5 18.74,1.73"
         stroke="none"
         stroke-width="0"
         fill="#82c91e"
         id="path514" />
      <path
         d="m 18.5,0 m 0,0 c 63.02,0.5 130.27,0.26 177,0 m -177,0 c 39.23,2.36 79.94,2.64 177,0 m 0,0 c 11.75,-1.28 19.54,4.73 18.5,18.5 M 195.5,0 c 13.38,-0.58 20.56,7.99 18.5,18.5 m 0,0 c 1.77,10.98 1.22,22.13 0,37 m 0,-37 c 0.29,9.11 0.28,18.02 0,37 m 0,0 c 1.59,13.32 -5.52,20.12 -18.5,18.5 M 214,55.5 c -0.85,10.14 -7.27,17.84 -18.5,18.5 m 0,0 c -50.01,2.14 -103.44,-0.61 -177,0 m 177,0 c -48.51,0.72 -95.43,1.2 -177,0 m 0,0 C 4.47,72.87 0.37,66.28 0,55.5 M 18.5,74 C 6.35,72.13 -1.8,69.29 0,55.5 m 0,0 C 1.2,42.54 -0.5,30.73 0,18.5 m 0,37 C 0.04,41.19 0.71,27.68 0,18.5 m 0,0 C 1.93,6.89 7.43,0.25 18.5,0 M 0,18.5 C -1.39,6.05 7.03,-1.59 18.5,0"
         stroke="#5c940d"
         stroke-width="4"
         fill="none"
         id="path516" />
    </g>
    <g
       transform="translate(781.27672,396.23748)"
       id="g522">
      <text
         x="0"
         y="33"
         font-family="'FG Virgil'"
         font-size="36px"
         fill="#000000"
         text-anchor="start"
         style="white-space:pre;fill:#ffffff"
         direction="ltr"
         id="text520">main</text>
    </g>
    <g
       stroke-linecap="round"
       transform="translate(899.77672,432.45178)"
       id="g528">
      <path
         d="m 73.35,1.95 c 9.09,1.43 19.21,5.79 24.94,10.04 5.73,4.26 8.98,10.6 9.45,15.48 0.48,4.88 -1.91,9.54 -6.59,13.8 -4.69,4.26 -12.95,9.16 -21.53,11.76 -8.59,2.6 -20.09,4.42 -29.98,3.82 C 39.75,56.25 28.12,52.83 20.26,49.44 12.41,46.05 5.56,41.2 2.51,36.52 -0.55,31.85 -0.53,26.2 1.92,21.38 4.36,16.56 10.27,11.07 17.17,7.62 24.07,4.18 32.65,1.23 43.31,0.71 53.98,0.2 73.75,3.41 81.14,4.53 c 7.39,1.13 6.9,2.73 6.53,2.94 M 71.91,1.89 c 9.29,1.29 18.78,4.63 24.8,8.61 6.02,3.98 10.29,10.04 11.33,15.26 1.05,5.21 -0.38,11.4 -5.04,16.04 -4.66,4.64 -14.47,9.4 -22.91,11.79 -8.45,2.39 -18.46,3.03 -27.77,2.54 C 43.01,55.64 32.53,53.39 24.23,50.65 15.93,47.9 6.18,44.35 2.53,39.66 -1.11,34.97 0.44,27.49 2.35,22.51 4.27,17.52 7.43,13.55 14,9.74 c 6.57,-3.8 18.27,-8.7 27.78,-10.09 9.51,-1.38 24.59,1.58 29.27,1.8 4.68,0.22 -0.94,-0.94 -1.2,-0.47"
         stroke="#5c940d"
         stroke-width="2"
         fill="none"
         id="path526" />
    </g>
    <g
       transform="translate(920.77672,447.45178)"
       id="g532">
      <text
         x="0"
         y="20"
         font-family="'Cascadia Code'"
         font-size="20px"
         fill="#000000"
         text-anchor="start"
         style="white-space:pre;fill:#82c91e;fill-opacity:1"
         direction="ltr"
         id="text530"><tspan
           style="fill:#82c91e;fill-opacity:1;stroke:none"
           id="tspan29696">v0.1.0</tspan></text>
    </g>
  </g>
  <g
     id="g9690"
     transform="translate(0.87706683)">
    <g
       stroke-linecap="round"
       transform="translate(3.276713,748.45178)"
       id="g538">
      <path
         d="m 20.2,-0.09 175.06,-0.58 10.05,3.04 6.06,3.83 1.41,7.7 -0.51,42.14 1.13,6.04 -5.22,9.28 -13.13,2.02 L 18.33,75.44 12.41,74.09 2.15,65.29 0.77,61.63 -1.54,12.77 4.77,4.3 9.31,2.22 19.24,0.42"
         stroke="none"
         stroke-width="0"
         fill="#fa5252"
         id="path534" />
      <path
         d="m 18.5,0 m 0,0 c 56.34,0.7 117.65,1.92 177,0 m -177,0 c 45.3,-0.05 91.45,0.48 177,0 m 0,0 c 10.51,0.6 20.3,5.12 18.5,18.5 M 195.5,0 c 10.54,0.58 18.11,6.62 18.5,18.5 m 0,0 c 1.22,10.72 1.92,23.14 0,37 m 0,-37 c -0.1,9.29 0.34,18.51 0,37 m 0,0 C 212.04,66.35 208.93,72.45 195.5,74 M 214,55.5 c -1.06,10.46 -7.14,20.33 -18.5,18.5 m 0,0 c -60.79,2.86 -123.66,0.66 -177,0 m 177,0 c -65.32,0.51 -129.35,0.5 -177,0 m 0,0 C 5.43,74.34 -0.82,68.86 0,55.5 M 18.5,74 C 7.38,73.96 -0.07,69.39 0,55.5 m 0,0 c 0.21,-8.46 -1.65,-16.32 0,-37 m 0,37 c -0.65,-9.39 -0.05,-17.31 0,-37 m 0,0 C -1.54,5.93 6.3,0.47 18.5,0 M 0,18.5 C 1.53,7 5.41,0.34 18.5,0"
         stroke="#c92a2a"
         stroke-width="4"
         fill="none"
         id="path536" />
    </g>
    <g
       transform="translate(58.776715,766.73748)"
       id="g542">
      <text
         x="0"
         y="25"
         font-family="'FG Virgil'"
         font-size="28px"
         fill="#000000"
         text-anchor="start"
         style="white-space:pre;fill:#ffffff"
         direction="ltr"
         id="text540">develop</text>
    </g>
    <g
       stroke-linecap="round"
       transform="translate(364.27672,748.45178)"
       id="g548">
      <path
         d="m 18.26,-0.67 178.95,1.88 8.38,1.52 2.86,1.63 3.53,10.35 2.58,39.28 -0.31,9.56 -7.93,7.23 -10.99,4.66 L 20.5,75.24 9.95,71.36 3.08,68.57 -1.54,58.45 0.43,13.84 l 3.1,-8.15 7.61,-4.12 7.9,-2.45"
         stroke="none"
         stroke-width="0"
         fill="#fab005"
         id="path544" />
      <path
         d="m 18.5,0 m 0,0 c 42.68,1.16 80.72,0.14 177,0 m -177,0 c 57.25,0.21 114.87,-0.46 177,0 m 0,0 c 14.13,-1.05 16.94,6.67 18.5,18.5 M 195.5,0 c 11.95,0.45 19.17,7.96 18.5,18.5 m 0,0 c 1.8,7.41 -0.68,18.05 0,37 m 0,-37 c 0.11,13.38 -1.07,27.09 0,37 m 0,0 c 1.1,10.78 -7.09,16.87 -18.5,18.5 M 214,55.5 c -0.98,14.17 -5.07,20.01 -18.5,18.5 m 0,0 c -66.26,0.81 -130.15,1.92 -177,0 m 177,0 C 135.02,73.26 73.37,73.7 18.5,74 m 0,0 C 5.35,75.03 1.05,67.8 0,55.5 M 18.5,74 C 6.1,75.56 -1.91,67.04 0,55.5 m 0,0 C -1.79,42.36 -1.25,31.48 0,18.5 m 0,37 C 0.39,42.05 -0.65,27.8 0,18.5 m 0,0 C 0.14,6.63 7.5,0.72 18.5,0 M 0,18.5 C -0.75,6.5 5.96,-1.24 18.5,0"
         stroke="#e67700"
         stroke-width="4"
         fill="none"
         id="path546" />
    </g>
    <g
       transform="translate(369.77672,768.73748)"
       id="g552">
      <text
         x="0"
         y="25"
         font-family="'FG Virgil'"
         font-size="28px"
         fill="#000000"
         text-anchor="start"
         style="white-space:pre;fill:#ffffff"
         direction="ltr"
         id="text550">release/v0.2.0</text>
    </g>
    <g
       stroke-linecap="round"
       id="g566"
       transform="translate(-53.938655,-1783.4833)">
      <g
         transform="translate(277.47556,2569.4676)"
         id="g556">
        <path
           d="M 1.2,0.94 C 23.89,0.55 114.6,-1.27 137.18,-1.62 M 0.37,0.39 C 22.76,0.13 112.83,-0.16 135.94,-0.17"
           stroke="#000000"
           stroke-width="4"
           fill="none"
           id="path554" />
      </g>
      <g
         transform="translate(277.47556,2569.4676)"
         id="g560">
        <path
           d="m 109.34,9.23 c 8.97,-5.07 20.64,-6.76 25.09,-7.99 m -26.74,9.63 c 9.5,-3.08 16.67,-7.52 28.49,-10.14"
           stroke="#000000"
           stroke-width="4"
           fill="none"
           id="path558" />
      </g>
      <g
         transform="translate(277.47556,2569.4676)"
         id="g564">
        <path
           d="m 109.3,-11.3 c 9.11,2.85 20.79,9.08 25.13,12.54 M 107.64,-9.65 c 9.47,3.03 16.65,4.71 28.54,10.38"
           stroke="#000000"
           stroke-width="4"
           fill="none"
           id="path562" />
      </g>
    </g>
    <g
       stroke-linecap="round"
       id="g580"
       transform="translate(-53.938655,-1783.4833)">
      <g
         transform="translate(640.21537,2570.1115)"
         id="g570">
        <path
           d="m 0.94,-0.56 c 19.02,-0.77 94.84,-2.62 113.9,-2.87 M -0.02,1.77 C 18.76,1.61 94.69,-2.05 113.81,-2.44"
           stroke="#000000"
           stroke-width="4"
           fill="none"
           id="path568" />
      </g>
      <g
         transform="translate(640.21537,2570.1115)"
         id="g574">
        <path
           d="m 85.08,8.56 c 9.11,-3.48 21.43,-9.59 30.14,-11.04 M 86.73,9.82 c 7.64,-4.33 13.99,-6.98 27.98,-13.17"
           stroke="#000000"
           stroke-width="4"
           fill="none"
           id="path572" />
      </g>
      <g
         transform="translate(640.21537,2570.1115)"
         id="g578">
        <path
           d="m 84.35,-11.95 c 9.58,3.91 22.16,5.2 30.87,9.47 M 86,-10.69 c 7.78,1.36 14.33,4.4 28.71,7.34"
           stroke="#000000"
           stroke-width="4"
           fill="none"
           id="path576" />
      </g>
    </g>
    <g
       stroke-linecap="round"
       transform="translate(706.27672,752.45178)"
       id="g586">
      <path
         d="m 20.49,1.57 174.08,-1.83 7.29,1.96 8.07,1.42 5.19,11 -1.57,40.76 -0.88,10.16 -3.9,7.6 -13.72,-0.12 -176.07,3.27 -10.4,-4.34 -5.84,-5 -3.55,-5.55 1.84,-46.32 4.13,-10.84 3.85,-4.11 8.96,2.3"
         stroke="none"
         stroke-width="0"
         fill="#82c91e"
         id="path582" />
      <path
         d="m 18.5,0 m 0,0 c 59.68,-1.21 119.14,-0.98 177,0 m -177,0 c 71.06,-1.05 139.54,-0.28 177,0 m 0,0 c 12,0.39 19.09,7.72 18.5,18.5 M 195.5,0 c 10.8,1.07 16.81,8.04 18.5,18.5 m 0,0 c 1.36,8.35 -0.62,18.06 0,37 m 0,-37 c 0.19,8.34 -0.82,17.41 0,37 m 0,0 C 213.15,69.43 208.79,75.32 195.5,74 M 214,55.5 c 1.64,13.23 -4.33,17.9 -18.5,18.5 m 0,0 c -46.91,-0.43 -96.1,1.25 -177,0 m 177,0 c -48.64,0.81 -95.94,0.28 -177,0 m 0,0 C 6.11,75.36 -1.66,67.15 0,55.5 M 18.5,74 C 7.28,74.1 -0.49,65.79 0,55.5 m 0,0 C 1.68,44.22 -0.9,34.78 0,18.5 m 0,37 C 0.35,43.38 0.95,31.15 0,18.5 m 0,0 C -0.66,6.46 5.99,-1.08 18.5,0 M 0,18.5 C 1.81,6.79 5.46,-0.63 18.5,0"
         stroke="#5c940d"
         stroke-width="4"
         fill="none"
         id="path584" />
    </g>
    <g
       transform="translate(780.77672,764.23748)"
       id="g590">
      <text
         x="0"
         y="33"
         font-family="'FG Virgil'"
         font-size="36px"
         fill="#000000"
         text-anchor="start"
         style="white-space:pre;fill:#ffffff"
         direction="ltr"
         id="text588">main</text>
    </g>
    <g
       stroke-linecap="round"
       transform="translate(899.27672,800.45178)"
       id="g596">
      <path
         d="m 61.51,0.05 c 9.34,0.14 19.93,3.15 27.43,6.65 7.49,3.5 14.63,9.52 17.55,14.33 2.92,4.82 2.95,9.83 -0.01,14.55 -2.96,4.72 -10.45,10.57 -17.74,13.77 -7.29,3.2 -16.38,4.73 -26,5.44 C 53.12,55.49 40.06,55.6 31.01,53.57 21.97,51.55 13.57,46.84 8.49,42.66 3.41,38.47 0.5,33.36 0.53,28.45 0.57,23.54 3.62,17.63 8.7,13.2 13.77,8.77 21.51,3.99 30.98,1.87 40.46,-0.25 58.78,0.4 65.56,0.47 72.33,0.54 71.78,1.83 71.63,2.3 M 60.33,1.7 c 9.22,0.23 19.57,2.55 27.36,5.45 7.79,2.91 16.51,7.16 19.36,11.98 2.84,4.82 0.64,11.91 -2.3,16.94 -2.94,5.03 -8.3,9.78 -15.34,13.25 -7.03,3.46 -17.14,6.71 -26.89,7.53 C 52.78,57.67 40.08,56.31 30.94,54.25 21.8,52.2 13,48.98 7.69,44.54 2.38,40.09 -1.13,32.63 -0.92,27.57 -0.71,22.51 3.64,18.4 8.94,14.18 14.23,9.96 22.06,4.73 30.84,2.27 c 8.77,-2.45 25.94,-2.39 30.75,-2.82 4.8,-0.43 -1.89,-0.16 -1.92,0.25"
         stroke="#5c940d"
         stroke-width="2"
         fill="none"
         id="path594" />
    </g>
    <g
       transform="translate(920.27672,815.45178)"
       id="g600">
      <text
         x="0"
         y="20"
         font-family="'Cascadia Code'"
         font-size="20px"
         fill="#000000"
         text-anchor="start"
         style="white-space:pre;fill:#82c91e;fill-opacity:1"
         direction="ltr"
         id="text598">v0.2.0</text>
    </g>
  </g>
  <g
     id="g9726"
     transform="translate(1.4626935)">
    <g
       stroke-linecap="round"
       transform="translate(2.276713,1151.4518)"
       id="g606">
      <path
         d="m 17.59,1.4 177.02,-1.64 7.76,-0.25 6.16,4.79 4.66,10.04 0.18,40.3 -1.54,10.36 -3.81,4.65 -12.53,2.53 L 16.68,73.71 10.5,71.08 4.09,65.56 2.1,58.73 -1.34,15.52 3.17,5.7 12.36,3.04 19.13,-0.7"
         stroke="none"
         stroke-width="0"
         fill="#fa5252"
         id="path602" />
      <path
         d="m 18.5,0 m 0,0 c 63.87,-1.93 130.03,-2.48 177,0 m -177,0 c 70.8,1.71 139.99,1.92 177,0 m 0,0 c 12.93,-1.33 19.41,7.98 18.5,18.5 M 195.5,0 c 12.29,-1.62 17.26,5.19 18.5,18.5 m 0,0 c 0.18,12.42 1.72,27.29 0,37 m 0,-37 c 0.78,13.12 0.76,23.92 0,37 m 0,0 C 213.22,66.04 206.17,74.41 195.5,74 M 214,55.5 c 1.72,11.11 -4.25,17.15 -18.5,18.5 m 0,0 c -58.46,1.16 -118.24,0.9 -177,0 m 177,0 c -56.95,1.39 -113.63,1.26 -177,0 m 0,0 C 7.67,74.01 -0.39,67.21 0,55.5 M 18.5,74 C 6.63,75.49 1.57,67.88 0,55.5 m 0,0 C 0.75,42.22 -0.89,31.04 0,18.5 m 0,37 c -0.54,-8.41 0.92,-17.49 0,-37 m 0,0 C 1.32,6.33 7.46,-0.92 18.5,0 M 0,18.5 C 1.75,8.19 4.64,0.02 18.5,0"
         stroke="#c92a2a"
         stroke-width="4"
         fill="none"
         id="path604" />
    </g>
    <g
       transform="translate(57.776715,1169.7375)"
       id="g610">
      <text
         x="0"
         y="25"
         font-family="'FG Virgil'"
         font-size="28px"
         fill="#000000"
         text-anchor="start"
         style="white-space:pre;fill:#ffffff"
         direction="ltr"
         id="text608">develop</text>
    </g>
    <g
       stroke-linecap="round"
       transform="translate(363.27672,1151.4518)"
       id="g616">
      <path
         d="m 17.61,-0.24 176.67,-1.4 8.47,2.47 6.11,3.97 4.22,8.5 -0.09,43.61 1.1,4.94 -7.33,7.73 -13.08,4.13 -175.09,-1.48 -6.7,-0.6 -7.48,-5.96 -5.75,-4.48 0.17,-45.95 7.74,-8.73 4.47,-6.05 8.71,0.97"
         stroke="none"
         stroke-width="0"
         fill="#fab005"
         id="path612" />
      <path
         d="m 18.5,0 m 0,0 c 66.17,-0.64 130.95,-0.64 177,0 m -177,0 c 42.56,-0.27 85.07,-1.79 177,0 m 0,0 c 13.25,1.81 18.46,4.76 18.5,18.5 M 195.5,0 c 11.09,-0.98 20.39,5.14 18.5,18.5 m 0,0 c 1.95,11.67 0.68,24.78 0,37 m 0,-37 c 1.18,7.19 -0.07,14.6 0,37 m 0,0 C 212.34,68.24 209.33,72.93 195.5,74 M 214,55.5 c 1.92,10.98 -5.5,20.27 -18.5,18.5 m 0,0 C 132.73,74.45 74,73.02 18.5,74 m 177,0 C 127.74,73.49 59.52,73.76 18.5,74 m 0,0 C 5.78,73.38 0.4,69.13 0,55.5 M 18.5,74 C 7.74,74.05 0.89,66.93 0,55.5 m 0,0 C -1.15,45.16 -1.29,32.98 0,18.5 m 0,37 C 1.05,42.29 0.9,28.47 0,18.5 m 0,0 C 1.29,5.24 7.69,1.76 18.5,0 M 0,18.5 C -1.52,6.19 6.49,2.23 18.5,0"
         stroke="#e67700"
         stroke-width="4"
         fill="none"
         id="path614" />
    </g>
    <g
       transform="translate(373.06243,1172.4518)"
       id="g620">
      <text
         x="0"
         y="25"
         font-family="'FG Virgil'"
         font-size="28px"
         fill="#000000"
         text-anchor="start"
         style="white-space:pre;fill:#ffffff"
         direction="ltr"
         id="text618">release/v0.3.0</text>
    </g>
    <g
       stroke-linecap="round"
       id="g634"
       transform="translate(-53.938655,-1783.4833)">
      <g
         transform="translate(276.47556,2972.4676)"
         id="g624">
        <path
           d="m -0.51,-0.2 c 23.03,-0.06 114.96,-0.86 137.94,-1.16 m -136,0.01 c 22.91,0.24 112.39,1.52 134.89,1.59"
           stroke="#000000"
           stroke-width="4"
           fill="none"
           id="path622" />
      </g>
      <g
         transform="translate(276.47556,2972.4676)"
         id="g628">
        <path
           d="m 107.7,9.72 c 7.35,-2.39 13.07,-5.16 30.03,-8.24 m -30.61,8.61 c 6.98,-2.61 13.7,-4.46 30.1,-10.41"
           stroke="#000000"
           stroke-width="4"
           fill="none"
           id="path626" />
      </g>
      <g
         transform="translate(276.47556,2972.4676)"
         id="g632">
        <path
           d="m 107.9,-10.8 c 7.13,2.52 12.81,4.65 29.83,12.28 m -30.41,-11.91 c 6.93,1.75 13.61,4.27 29.9,10.11"
           stroke="#000000"
           stroke-width="4"
           fill="none"
           id="path630" />
      </g>
    </g>
    <g
       stroke-linecap="round"
       id="g648"
       transform="translate(-53.938655,-1783.4833)">
      <g
         transform="translate(642.50108,2973.6827)"
         id="g638">
        <path
           d="M -0.2,-0.31 C 18.6,-0.73 93.26,-2.56 111.82,-3.05 M -1.76,-1.52 c 18.74,-0.21 94.04,-0.07 112.69,-0.19"
           stroke="#000000"
           stroke-width="4"
           fill="none"
           id="path636" />
      </g>
      <g
         transform="translate(642.50108,2973.6827)"
         id="g642">
        <path
           d="M 82.24,8.78 C 88.31,5.54 94.07,5.56 112.18,-3.46 M 82.62,8.65 c 7.79,-2.14 16.5,-5.07 27.76,-11.18"
           stroke="#000000"
           stroke-width="4"
           fill="none"
           id="path640" />
      </g>
      <g
         transform="translate(642.50108,2973.6827)"
         id="g646">
        <path
           d="m 82.2,-11.74 c 5.99,1.23 11.76,5.72 29.98,8.28 m -29.61,-8.41 c 7.62,4.01 16.35,7.23 27.81,9.34"
           stroke="#000000"
           stroke-width="4"
           fill="none"
           id="path644" />
      </g>
    </g>
    <g
       stroke-linecap="round"
       transform="translate(705.27672,1155.4518)"
       id="g654">
      <path
         d="m 17.66,-0.33 177.32,0.51 7.99,0.11 5.39,5.74 6.6,6.39 -0.97,41.26 -2.96,9.63 -4.16,6.32 -9.88,3.16 L 20.31,72.89 8.78,74.2 1.15,67.85 2.24,61.72 0.92,13.47 5.88,6.05 11.7,0.83 17.71,1.65"
         stroke="none"
         stroke-width="0"
         fill="#82c91e"
         id="path650" />
      <path
         d="m 18.5,0 m 0,0 c 40.04,2.97 83.77,1.53 177,0 m -177,0 c 68.59,2.08 136.24,0.47 177,0 m 0,0 c 11.26,-0.85 20.14,5.27 18.5,18.5 M 195.5,0 c 13.3,0.4 16.53,8.33 18.5,18.5 m 0,0 c -1.7,11.05 1.88,20.29 0,37 m 0,-37 c -0.98,9.23 0.6,17.52 0,37 m 0,0 c 1.67,11.16 -5.59,20.04 -18.5,18.5 M 214,55.5 c 1.02,12.06 -5.74,16.44 -18.5,18.5 m 0,0 c -52.38,-0.82 -108.49,0.06 -177,0 m 177,0 C 147,73.69 99.09,74.65 18.5,74 m 0,0 C 7.53,74.04 0.78,67.05 0,55.5 M 18.5,74 C 6.08,74.7 -0.85,66.64 0,55.5 m 0,0 C 1.55,41.95 1.25,32.62 0,18.5 m 0,37 C 0.4,42.63 0.52,31.57 0,18.5 m 0,0 C -1.32,6.19 6.45,1.94 18.5,0 M 0,18.5 C 1.07,4.67 6.69,1.62 18.5,0"
         stroke="#5c940d"
         stroke-width="4"
         fill="none"
         id="path652" />
    </g>
    <g
       transform="translate(779.77672,1167.2375)"
       id="g658">
      <text
         x="0"
         y="33"
         font-family="'FG Virgil'"
         font-size="36px"
         fill="#000000"
         text-anchor="start"
         style="white-space:pre;fill:#ffffff"
         direction="ltr"
         id="text656">main</text>
    </g>
    <g
       stroke-linecap="round"
       transform="translate(898.27672,1203.4518)"
       id="g664">
      <path
         d="m 39.62,0.89 c 8.49,-1.84 21.01,-1.98 30.37,-0.39 9.37,1.59 19.68,5.72 25.81,9.91 6.14,4.2 10,10.1 10.99,15.26 0.99,5.16 -0.76,11.43 -5.04,15.69 -4.27,4.26 -12.47,7.55 -20.61,9.86 C 73,53.54 62.45,55.12 52.91,55.26 43.36,55.39 31.84,54.71 23.87,52.02 15.91,49.33 9.01,43.82 5.11,39.11 1.21,34.39 -1.18,28.65 0.48,23.74 2.14,18.82 7.83,13.57 15.08,9.63 22.34,5.68 38.38,1.67 44,0.07 c 5.63,-1.59 4.48,-0.42 4.83,0 M 38.16,2.55 c 8.45,-2.13 21.16,-3.9 30.62,-2.54 9.45,1.35 19.69,6.91 26.11,10.65 6.41,3.75 11.09,7.18 12.39,11.83 1.3,4.65 -0.91,11.38 -4.59,16.07 -3.68,4.69 -9.64,9.11 -17.5,12.06 -7.85,2.95 -19.49,5.2 -29.64,5.64 C 45.4,56.69 32.8,55.84 24.3,53.22 15.8,50.6 8.58,45.54 4.54,40.53 0.49,35.51 -1.52,27.99 0.04,23.13 1.6,18.27 7.39,15.14 13.91,11.35 20.43,7.57 35.23,2.25 39.19,0.43 c 3.95,-1.81 -1.4,-0.6 -1.55,0.03"
         stroke="#5c940d"
         stroke-width="2"
         fill="none"
         id="path662" />
    </g>
    <g
       transform="translate(919.27672,1218.4518)"
       id="g668">
      <text
         x="0"
         y="20"
         font-family="'Cascadia Code'"
         font-size="20px"
         fill="#000000"
         text-anchor="start"
         style="white-space:pre;fill:#82c91e;fill-opacity:1"
         direction="ltr"
         id="text666">v0.3.0</text>
    </g>
  </g>
  <g
     stroke-linecap="round"
     transform="translate(1070.1378,268.68708)"
     id="g672"
     style="fill:#808080;stroke:#666666;stroke-opacity:1">
    <path
       d="M 1.91,-0.58 C 102.28,3.14 201.96,4.18 323.3,-1.01 M 1.01,0.02 C 67.92,4.08 137.9,4.67 323.37,0.25 m -3.64,2.47 c -1.1,78.42 4,165.22 0.81,269.6 M 321.23,1.4 c 5.6,73.54 4.87,148.85 -0.23,272.76 m -0.54,0.78 C 225.02,273.89 127.6,274.13 -2.46,272.3 m 324.35,1.41 C 248.8,272.68 175.43,273.77 -0.14,273.37 M -2.71,272.6 C -0.41,175.39 -2.91,77.76 -0.36,1.51 M 0.38,274.28 C 4.87,198.61 4.54,122.64 -0.09,-0.45"
       stroke="#000000"
       stroke-width="1"
       fill="none"
       id="path670"
       style="fill:#808080;stroke:#666666;stroke-opacity:1" />
  </g>
  <g
     transform="translate(1121.3878,383.63308)"
     id="g676"
     style="fill:#808080">
    <text
       x="0"
       y="25"
       font-family="'FG Virgil'"
       font-size="28px"
       fill="#000000"
       text-anchor="start"
       style="white-space:pre;fill:#808080"
       direction="ltr"
       id="text674">Desenvolvimento</text>
  </g>
  <g
     transform="translate(1175.1378,440.63308)"
     id="g680">
    <text
       x="0"
       y="28"
       font-family="'Cascadia Code'"
       font-size="28px"
       fill="#c92a2a"
       text-anchor="start"
       style="white-space:pre"
       direction="ltr"
       id="text678">v0.1.0</text>
  </g>
  <g
     stroke-linecap="round"
     transform="translate(1064.3878,660.21408)"
     id="g684"
     style="fill:#808080;stroke:#666666;stroke-opacity:1">
    <path
       d="M -0.25,-2.35 C 111.8,-2.66 221.06,0.49 322.86,-0.43 M -1.22,0.05 C 100.27,-4.41 199.12,-3.6 323.56,1.16 M 321.48,0.54 C 319.74,98.95 323.27,192.99 319.9,275 M 321.67,1.53 c -2.82,109.17 -0.64,216.76 0.32,273.51 m -0.75,-3.3 c -113.84,3.39 -226.93,2.89 -322.19,3.21 m 322.96,-1.08 C 212.6,276.92 103.05,277.09 0.47,275.16 M -0.6,273.74 C -1.49,201.58 -1.66,125.19 2.82,-1.5 M 1.12,272.89 C 0.41,193.1 0.51,109.69 0.47,-1.53"
       stroke="#000000"
       stroke-width="1"
       fill="none"
       id="path682"
       style="fill:#808080;stroke:#666666;stroke-opacity:1" />
  </g>
  <g
     transform="translate(1115.6378,775.16008)"
     id="g688"
     style="fill:#808080">
    <text
       x="0"
       y="25"
       font-family="'FG Virgil'"
       font-size="28px"
       fill="#000000"
       text-anchor="start"
       style="white-space:pre;fill:#808080"
       direction="ltr"
       id="text686">Desenvolvimento</text>
  </g>
  <g
     transform="translate(1169.3878,832.16008)"
     id="g692">
    <text
       x="0"
       y="28"
       font-family="'Cascadia Code'"
       font-size="28px"
       fill="#c92a2a"
       text-anchor="start"
       style="white-space:pre"
       direction="ltr"
       id="text690">v0.2.0</text>
  </g>
  <g
     stroke-linecap="round"
     transform="translate(1340.6378,611.41008)"
     id="g696"
     style="fill:none;stroke:#666666;stroke-opacity:1">
    <path
       d="m 206.61,-0.65 c 60.74,54.33 119.35,108.1 208.15,187.09 M 206.88,0.7 c 44.34,37.58 88.5,76.62 206.48,184.64 m 1.68,1.1 C 358.89,232.48 303.91,284.39 206.1,368.34 M 414.48,185.51 c -50.39,43.36 -100.86,89.3 -207.88,183.77 m -0.77,-1.63 C 154.06,320.26 103.2,274.57 0.54,186.17 M 206.63,368.13 C 152.29,319.54 98.32,270.41 0.41,184.49 m 0.06,0.82 C 57.33,134.1 115.6,80.82 206.87,-0.15 M 0.72,185.08 C 78.46,116.37 154.39,46.82 207.14,0.15"
       stroke="#000000"
       stroke-width="1"
       fill="none"
       id="path694"
       style="fill:none;stroke:#666666;stroke-opacity:1" />
  </g>
  <g
     transform="translate(1463.1378,772.41008)"
     id="g700"
     style="fill:#808080">
    <text
       x="0"
       y="25"
       font-family="'FG Virgil'"
       font-size="28px"
       fill="#000000"
       text-anchor="start"
       style="white-space:pre;fill:#808080"
       direction="ltr"
       id="text698">Homologação</text>
  </g>
  <g
     transform="translate(1501.8878,835.66008)"
     id="g704">
    <text
       x="0"
       y="28"
       font-family="'Cascadia Code'"
       font-size="28px"
       fill="#e67700"
       text-anchor="start"
       style="white-space:pre"
       direction="ltr"
       id="text702">v0.1.0</text>
  </g>
  <g
     transform="translate(1116.1378,1194.6601)"
     id="g712"
     style="fill:#808080">
    <text
       x="0"
       y="25"
       font-family="'FG Virgil'"
       font-size="28px"
       fill="#000000"
       text-anchor="start"
       style="white-space:pre;fill:#808080"
       direction="ltr"
       id="text710">Desenvolvimento</text>
  </g>
  <g
     transform="translate(1169.8878,1251.6601)"
     id="g716">
    <text
       x="0"
       y="28"
       font-family="'Cascadia Code'"
       font-size="28px"
       fill="#c92a2a"
       text-anchor="start"
       style="white-space:pre"
       direction="ltr"
       id="text714">v0.3.0</text>
  </g>
  <g
     transform="translate(1463.6378,1191.9101)"
     id="g724"
     style="fill:#808080">
    <text
       x="0"
       y="25"
       font-family="'FG Virgil'"
       font-size="28px"
       fill="#000000"
       text-anchor="start"
       style="white-space:pre;fill:#808080"
       direction="ltr"
       id="text722">Homologação</text>
  </g>
  <g
     transform="translate(1502.3878,1255.1601)"
     id="g728">
    <text
       x="0"
       y="28"
       font-family="'Cascadia Code'"
       font-size="28px"
       fill="#e67700"
       text-anchor="start"
       style="white-space:pre"
       direction="ltr"
       id="text726">v0.2.0</text>
  </g>
  <g
     stroke-linecap="round"
     transform="translate(1064.8878,1079.7141)"
     id="g708"
     style="fill:#808080;stroke:#666666;stroke-opacity:1">
    <path
       d="M -0.96,-1.04 C 90.32,-1.51 185.81,-4.02 324.31,2.19 M 0.48,1.24 c 124.67,-4.6 250.22,-6.01 320.77,0 m -1.36,-3.17 c -1,77.56 -1.88,154.19 3.41,277.97 M 321.37,-1.22 c -1.01,60.98 0.62,118.93 2.67,275.59 m -1.1,-2.8 c -99.39,5.07 -194.16,5.05 -325.5,0.02 M 323.8,274 c -93.21,4.65 -184.76,2.21 -323.82,-0.66 M -1.72,274 C -1.65,207.3 -2.18,137.47 0.97,-0.41 M 0.27,275.6 C 0.2,196.98 0.27,121.23 0.04,-1.38"
       stroke="#000000"
       stroke-width="1"
       fill="none"
       id="path706"
       style="fill:#808080;stroke:#666666;stroke-opacity:1" />
  </g>
  <g
     stroke-linecap="round"
     transform="translate(1341.1378,1030.9101)"
     id="g720"
     style="fill:none;stroke:#666666;stroke-opacity:1">
    <path
       d="m 208.19,0.26 c 53,51.24 109.34,100.75 205.15,186.15 M 207.41,-0.09 c 69.67,61.63 139.92,124.06 205.91,185.19 m 0.17,-1.15 C 368.2,224.44 324.51,262.4 206.72,368.67 M 414.15,185.12 c -48.55,40.94 -95.3,81.9 -206.92,184.08 m -0.33,0.16 C 142.87,308.43 76.18,251.61 1.17,186.15 M 207.62,369.11 C 125.06,296.65 43.93,224.03 0.24,185.68 m 0.86,-1.1 C 51.46,140.4 101.12,94.33 206.86,-0.98 M -0.65,184.94 C 63.86,126.5 129.45,68.39 207.6,0.74"
       stroke="#000000"
       stroke-width="1"
       fill="none"
       id="path718"
       style="fill:none;stroke:#666666;stroke-opacity:1" />
  </g>
  <g
     id="g9762"
     transform="translate(0.38689316)">
    <g
       stroke-linecap="round"
       transform="translate(3.359054,1583.0589)"
       id="g746">
      <path
         d="m 16.85,0.6 178.25,0.77 8.81,-0.73 3.52,4.72 4.93,10.76 0.67,40.61 -0.13,4.95 -4.84,9.37 -10.71,3.81 L 17.7,72.66 12.35,73.01 3.3,67.63 1.12,60.62 1.63,12.89 4.23,5.04 8.67,1.83 20.46,-0.34"
         stroke="none"
         stroke-width="0"
         fill="#fa5252"
         id="path742" />
      <path
         d="m 18.5,0 m 0,0 c 54.9,1.34 111.67,0.94 177,0 m -177,0 c 70.44,-0.26 140.33,1.35 177,0 m 0,0 c 11.91,-1.41 17.02,5.16 18.5,18.5 M 195.5,0 c 14.47,-1.51 16.54,6.8 18.5,18.5 m 0,0 c -1.82,12.4 0.43,21.69 0,37 m 0,-37 c -1.04,10.82 0.91,22.27 0,37 m 0,0 c 1.06,13.64 -6.78,20.16 -18.5,18.5 M 214,55.5 c -2.22,14.26 -6.02,20.42 -18.5,18.5 m 0,0 C 129.81,71.82 65.95,72.46 18.5,74 m 177,0 c -41.97,0.39 -82.58,0.76 -177,0 m 0,0 C 7.44,75.5 -1.9,69.01 0,55.5 M 18.5,74 C 4.54,74.13 0.49,68.71 0,55.5 m 0,0 C -0.27,43.42 1.98,30.14 0,18.5 m 0,37 C -0.54,44.55 -0.17,31.99 0,18.5 m 0,0 C -0.94,5.43 7.87,0.97 18.5,0 M 0,18.5 C 0.13,4.23 7.28,-1.63 18.5,0"
         stroke="#c92a2a"
         stroke-width="4"
         fill="none"
         id="path744" />
    </g>
    <g
       transform="translate(58.859055,1601.3446)"
       id="g750">
      <text
         x="0"
         y="25"
         font-family="'FG Virgil'"
         font-size="28px"
         fill="#000000"
         text-anchor="start"
         style="white-space:pre;fill:#ffffff"
         direction="ltr"
         id="text748">develop</text>
    </g>
    <g
       stroke-linecap="round"
       transform="translate(364.35906,1583.0589)"
       id="g756">
      <path
         d="m 18.1,1.37 177.72,-1.89 5.83,2.41 6.37,4.69 4.72,8.82 1.31,38.19 0.08,9.65 -5.5,9.02 -13.93,0.4 L 20.45,74.16 11.1,73.7 3.44,67.56 1.63,58.56 -0.1,14.58 2.89,5.3 12.36,0.82 18.7,1.01"
         stroke="none"
         stroke-width="0"
         fill="#fab005"
         id="path752" />
      <path
         d="m 18.5,0 m 0,0 c 56.43,-0.22 110.94,-1.29 177,0 m -177,0 c 48.96,2.1 98.39,0.43 177,0 m 0,0 c 10.85,-1 20.36,4.85 18.5,18.5 M 195.5,0 c 10.37,0.63 18.85,5.06 18.5,18.5 m 0,0 c 0.31,7.54 -0.25,17.94 0,37 m 0,-37 c 0.62,9.56 0.17,20.07 0,37 m 0,0 C 213.39,69.49 205.9,75.67 195.5,74 M 214,55.5 c 0.15,14.26 -4.63,18.04 -18.5,18.5 m 0,0 c -43.83,-1.77 -89.52,-1.45 -177,0 m 177,0 c -59.43,-0.48 -119.49,0.21 -177,0 m 0,0 C 4.26,75.18 -1.42,67.95 0,55.5 M 18.5,74 C 6.65,74.88 1.12,66.98 0,55.5 m 0,0 C 1.91,44.72 0.36,32.14 0,18.5 m 0,37 C -0.08,44.75 -0.2,34.12 0,18.5 m 0,0 C 1.7,7.13 6.28,-1.68 18.5,0 M 0,18.5 C 1.11,4.54 5.61,0.89 18.5,0"
         stroke="#e67700"
         stroke-width="4"
         fill="none"
         id="path754" />
    </g>
    <g
       transform="translate(374.14477,1604.0589)"
       id="g760">
      <text
         x="0"
         y="25"
         font-family="'FG Virgil'"
         font-size="28px"
         fill="#000000"
         text-anchor="start"
         style="white-space:pre;fill:#ffffff"
         direction="ltr"
         id="text758">release/v0.3.1</text>
    </g>
    <g
       stroke-linecap="round"
       id="g774"
       transform="translate(-53.938655,-1783.4833)">
      <g
         transform="translate(277.5579,3404.0698)"
         id="g764">
        <path
           d="m -1.17,0.44 c 22.79,0 115.04,-0.56 138.1,-0.76 M 0.42,-0.38 C 23.57,-0.65 116.6,-1.44 139.21,-1.83"
           stroke="#000000"
           stroke-width="4"
           fill="none"
           id="path762" />
      </g>
      <g
         transform="translate(277.5579,3404.0698)"
         id="g768">
        <path
           d="M 111.88,7.42 C 122,4.73 130.14,2.4 137.3,-0.54 m -26.55,8.65 c 9.2,-2.37 16.51,-5.02 28.88,-9.55"
           stroke="#000000"
           stroke-width="4"
           fill="none"
           id="path766" />
      </g>
      <g
         transform="translate(277.5579,3404.0698)"
         id="g772">
        <path
           d="m 111.63,-13.1 c 10.14,3.79 18.37,7.95 25.67,12.56 m -26.8,-11.87 c 9.46,3.43 16.84,6.58 29.13,10.97"
           stroke="#000000"
           stroke-width="4"
           fill="none"
           id="path770" />
      </g>
    </g>
    <g
       stroke-linecap="round"
       id="g788"
       transform="translate(-53.938655,-1783.4833)">
      <g
         transform="translate(631.58342,3405.4797)"
         id="g778">
        <path
           d="M 0.44,-0.81 C 21.3,-1.2 104.22,-3.14 124.89,-3.49 M -0.79,1.38 C 20.05,1.24 103.74,-1.77 124.55,-2.26"
           stroke="#000000"
           stroke-width="4"
           fill="none"
           id="path776" />
      </g>
      <g
         transform="translate(631.58342,3405.4797)"
         id="g782">
        <path
           d="m 95.33,10.8 c 8.13,-3.86 16.8,-10.05 30.51,-13.41 M 96.02,9.82 c 11.64,-4.87 22.93,-9.16 28.92,-11.41"
           stroke="#000000"
           stroke-width="4"
           fill="none"
           id="path780" />
      </g>
      <g
         transform="translate(631.58342,3405.4797)"
         id="g786">
        <path
           d="m 94.71,-9.71 c 8.1,1.75 16.94,1.19 31.13,7.1 M 95.4,-10.69 c 11.97,3.18 23.5,6.94 29.54,9.1"
           stroke="#000000"
           stroke-width="4"
           fill="none"
           id="path784" />
      </g>
    </g>
    <g
       stroke-linecap="round"
       transform="translate(706.35906,1587.0589)"
       id="g794">
      <path
         d="m 16.55,0.73 177.6,1.22 8.47,0.44 6.81,0.32 5.57,11.1 0.85,42.55 -3.81,5.9 -3.32,9.3 -12.52,3.3 L 19.33,74.78 11.75,71.57 2.21,67.19 -1.45,60.51 2.25,13.82 4.82,5.63 10.56,1.19 19.98,1.93"
         stroke="none"
         stroke-width="0"
         fill="#82c91e"
         id="path790" />
      <path
         d="m 18.5,0 m 0,0 c 62.27,0.19 124.12,-0.69 177,0 m -177,0 c 69.6,0.74 141.61,0.59 177,0 m 0,0 c 10.63,0.55 18.8,5.21 18.5,18.5 M 195.5,0 c 11.13,-1.89 19.35,6.87 18.5,18.5 m 0,0 c -0.74,6.16 -0.77,18.16 0,37 m 0,-37 c -0.11,11.39 -0.77,21.96 0,37 m 0,0 c 0.13,14 -4.83,18.1 -18.5,18.5 M 214,55.5 c -1.17,11.44 -7.63,18.82 -18.5,18.5 m 0,0 c -46.67,-1.02 -95.51,0.98 -177,0 m 177,0 c -55.1,1.91 -109.01,1.38 -177,0 m 0,0 C 6.59,74.76 0.97,67.09 0,55.5 M 18.5,74 C 6.24,73.53 0.94,69.95 0,55.5 m 0,0 C -0.37,42.15 1.31,30.98 0,18.5 m 0,37 c 1.02,-9.71 0.23,-21.23 0,-37 m 0,0 C 0.96,4.75 5.69,0.77 18.5,0 M 0,18.5 C 0.52,5.96 6.94,0.89 18.5,0"
         stroke="#5c940d"
         stroke-width="4"
         fill="none"
         id="path792" />
    </g>
    <g
       transform="translate(780.85906,1598.8446)"
       id="g798">
      <text
         x="0"
         y="33"
         font-family="'FG Virgil'"
         font-size="36px"
         fill="#000000"
         text-anchor="start"
         style="white-space:pre;fill:#ffffff"
         direction="ltr"
         id="text796">main</text>
    </g>
    <g
       stroke-linecap="round"
       transform="translate(899.35906,1635.0589)"
       id="g804">
      <path
         d="m 54.55,0.93 c 9.48,-0.5 21.65,0.53 29.68,3.32 8.04,2.79 14.65,8.69 18.52,13.43 3.86,4.75 6.01,10.13 4.67,15.03 -1.33,4.89 -6.24,10.5 -12.66,14.33 -6.42,3.82 -16.3,7.34 -25.85,8.6 C 59.36,56.89 46.79,56.31 37.46,54.56 28.13,52.82 19.04,48.84 12.93,45.18 6.81,41.52 2.11,37.43 0.79,32.59 -0.53,27.75 0.83,20.84 5.02,16.13 9.2,11.42 16.44,6.84 25.92,4.32 35.4,1.81 54.64,1.4 61.92,1.04 69.2,0.68 69.58,1.83 69.61,2.17 M 47.71,1.62 C 56.74,0.7 69.24,0.01 77.84,1.9 c 8.6,1.89 16.23,6.7 21.48,11.05 5.26,4.35 10.41,9.82 10.04,15.05 -0.37,5.24 -6.53,12.18 -12.27,16.38 C 91.34,48.57 83.81,51.49 74.9,53.15 66,54.8 53.16,55.02 43.64,54.32 34.12,53.62 24.97,52.18 17.77,48.96 10.57,45.73 3.01,40.04 0.47,34.98 -2.08,29.92 -0.56,23.49 2.47,18.6 5.5,13.71 10.78,8.73 18.65,5.62 26.52,2.51 44.6,0.6 49.68,-0.06 54.76,-0.71 49.35,0.99 49.13,1.7"
         stroke="#5c940d"
         stroke-width="2"
         fill="none"
         id="path802" />
    </g>
    <g
       transform="translate(920.35906,1650.0589)"
       id="g808">
      <text
         x="0"
         y="20"
         font-family="'Cascadia Code'"
         font-size="20px"
         fill="#000000"
         text-anchor="start"
         style="white-space:pre;fill:#82c91e;fill-opacity:1"
         direction="ltr"
         id="text806">v0.3.1</text>
    </g>
  </g>
  <g
     stroke-linecap="round"
     transform="translate(1065.9701,1511.3212)"
     id="g812"
     style="fill:#808080;stroke:#666666;stroke-opacity:1">
    <path
       d="m -2.66,1.8 c 83.28,0.66 166.07,-3.04 323.3,0.91 M 0.58,0.54 c 99.75,-3.35 197.95,-2.18 320.71,-0.07 m 2.77,-0.22 c -2.23,111.14 0.72,219.63 1.46,273.97 M 321.98,1.51 c 0.63,73.77 -0.2,150.45 1.96,271.66 m -2.77,-0.43 c -70.23,3.16 -136.35,-0.12 -321.09,0.92 m 323.78,0.33 c -85.24,-0.63 -171.02,-0.39 -325.2,1.37 m 0.73,-2.74 C -4.76,188.19 -3.12,105.16 -2.02,-0.49 m 3,274.78 C 2.56,182.31 0.1,89.02 -1.1,0.09"
       stroke="#000000"
       stroke-width="1"
       fill="none"
       id="path810"
       style="fill:#808080;stroke:#666666;stroke-opacity:1" />
  </g>
  <g
     transform="translate(1117.2201,1626.2672)"
     id="g816"
     style="fill:#808080">
    <text
       x="0"
       y="25"
       font-family="'FG Virgil'"
       font-size="28px"
       fill="#000000"
       text-anchor="start"
       style="white-space:pre;fill:#808080"
       direction="ltr"
       id="text814">Desenvolvimento</text>
  </g>
  <g
     transform="translate(1170.9701,1683.2672)"
     id="g820">
    <text
       x="0"
       y="28"
       font-family="'Cascadia Code'"
       font-size="28px"
       fill="#c92a2a"
       text-anchor="start"
       style="white-space:pre"
       direction="ltr"
       id="text818">v0.3.1</text>
  </g>
  <g
     stroke-linecap="round"
     transform="translate(1342.2201,1462.5172)"
     id="g824"
     style="fill:none;stroke:#666666;stroke-opacity:1">
    <path
       d="m 208.43,0.67 c 41.12,36.38 85.49,75.35 205.86,184.99 M 206.51,-0.15 c 71.86,61.63 142.62,126.28 207.11,185.23 m 1.27,1.41 C 342.27,250.9 269.01,313.44 207.16,367.76 M 413.21,184.43 c -53.5,49.87 -108.66,97.4 -206,184.44 m 0.36,0.35 C 154.31,321.16 103.09,274.22 -1.5,184.4 m 209,184.11 C 125.47,295.72 43.09,223.39 0.65,185.52 m -1.63,-0.3 C 58.23,132.78 116.48,82.55 206.43,-0.47 M 0.58,184.27 C 75.53,116.26 150.29,49.79 207.29,0.38"
       stroke="#000000"
       stroke-width="1"
       fill="none"
       id="path822"
       style="fill:none;stroke:#666666;stroke-opacity:1" />
  </g>
  <g
     transform="translate(1464.7201,1623.5172)"
     id="g828"
     style="fill:#808080">
    <text
       x="0"
       y="25"
       font-family="'FG Virgil'"
       font-size="28px"
       fill="#000000"
       text-anchor="start"
       style="white-space:pre;fill:#808080"
       direction="ltr"
       id="text826">Homologação</text>
  </g>
  <g
     transform="translate(1503.4701,1686.7672)"
     id="g832">
    <text
       x="0"
       y="28"
       font-family="'Cascadia Code'"
       font-size="28px"
       fill="#e67700"
       text-anchor="start"
       style="white-space:pre"
       direction="ltr"
       id="text830">v0.3.0</text>
  </g>
  <g
     transform="translate(71.498569,300.55888)"
     id="g848"
     style="fill:#808080">
    <text
       x="0"
       y="25"
       font-family="'FG Virgil'"
       font-size="28px"
       fill="#000000"
       text-anchor="start"
       style="white-space:pre;fill:#808080"
       direction="ltr"
       id="text846">- História A: desenvolvimento de uma nova funcionalidade</text>
  </g>
  <g
     transform="translate(63.504581,617.61448)"
     id="g854"
     style="fill:#808080">
    <text
       x="0"
       y="25"
       font-family="'FG Virgil'"
       font-size="28px"
       fill="#000000"
       text-anchor="start"
       style="white-space:pre;fill:#808080"
       direction="ltr"
       id="text850">- História B:  desenvolvimento de uma nova funcionalidade</text>
    <text
       x="0"
       y="61"
       font-family="'FG Virgil'"
       font-size="28px"
       fill="#000000"
       text-anchor="start"
       style="white-space:pre;fill:#808080"
       direction="ltr"
       id="text852">- homologação da funcionalidade da história A</text>
  </g>
  <g
     transform="translate(69.370548,1000.3922)"
     id="g862"
     style="fill:#808080">
    <text
       x="0"
       y="25"
       font-family="'FG Virgil'"
       font-size="28px"
       fill="#000000"
       text-anchor="start"
       style="white-space:pre;fill:#808080"
       direction="ltr"
       id="text856">- História C: desenvolvimento de uma nova funcionalidade</text>
    <text
       x="0"
       y="61"
       font-family="'FG Virgil'"
       font-size="28px"
       fill="#000000"
       text-anchor="start"
       style="white-space:pre;fill:#808080"
       direction="ltr"
       id="text858">- homologação da funcionalidade da história B</text>
    <text
       x="0"
       y="97"
       font-family="'FG Virgil'"
       font-size="28px"
       fill="#000000"
       text-anchor="start"
       style="white-space:pre;fill:#808080"
       direction="ltr"
       id="text860">- funcionalidade da história A disponível em produção</text>
  </g>
  <g
     id="g9798"
     transform="translate(-9.3394176)">
    <g
       stroke-linecap="round"
       transform="translate(13.025721,2418.0589)"
       id="g868">
      <path
         d="m 18.93,0.75 176.83,0.45 7.17,0.11 5.67,4.94 6.4,9.1 0.47,40.3 -3.49,9.73 -5.34,7.46 L 195.8,72.81 17.41,74.05 11.24,70.86 3.28,65.21 -0.37,59.91 -0.89,15.13 3.67,3.18 l 7.37,-2.1 9.22,0.85"
         stroke="none"
         stroke-width="0"
         fill="#fa5252"
         id="path864" />
      <path
         d="m 18.5,0 m 0,0 c 61.06,-1.44 122.65,-1.25 177,0 m -177,0 c 51.11,1.11 103.99,0.28 177,0 m 0,0 c 14.02,-0.28 16.76,6.24 18.5,18.5 M 195.5,0 c 13.93,0.56 18.25,3.97 18.5,18.5 m 0,0 c -0.54,15.54 0.88,27.73 0,37 m 0,-37 c -0.43,11.79 -0.68,25.28 0,37 m 0,0 c 1.26,10.45 -6.87,18.83 -18.5,18.5 M 214,55.5 c 0.57,11.24 -7.97,16.59 -18.5,18.5 m 0,0 c -41.48,-1.07 -87.11,-0.03 -177,0 m 177,0 c -41.13,0.49 -81.85,-0.17 -177,0 m 0,0 C 5.97,72.73 -0.7,69.36 0,55.5 M 18.5,74 C 7.84,75.16 1.12,68.84 0,55.5 m 0,0 c 1.75,-9.45 -0.4,-22.54 0,-37 m 0,37 c -0.45,-7.13 0.04,-14.38 0,-37 m 0,0 C -1.51,4.28 4.31,1.05 18.5,0 M 0,18.5 C 0.29,4.04 4.99,-0.68 18.5,0"
         stroke="#c92a2a"
         stroke-width="4"
         fill="none"
         id="path866" />
    </g>
    <g
       transform="translate(68.525725,2436.3446)"
       id="g872">
      <text
         x="0"
         y="25"
         font-family="'FG Virgil'"
         font-size="28px"
         fill="#000000"
         text-anchor="start"
         style="white-space:pre;fill:#ffffff"
         direction="ltr"
         id="text870">develop</text>
    </g>
    <g
       stroke-linecap="round"
       transform="translate(374.02573,2418.0589)"
       id="g878">
      <path
         d="m 18.76,1.2 176.08,-1.04 7.98,2.62 7.84,3.03 4.52,8.51 -2.05,42.96 -0.42,7.76 -5.63,5.17 -12.67,3.84 L 19.33,72.02 11.08,71.28 1.94,66.85 -0.89,60.8 -0.67,12.72 5.25,4.54 12.16,3.09 19.45,1.48"
         stroke="none"
         stroke-width="0"
         fill="#fab005"
         id="path874" />
      <path
         d="m 18.5,0 m 0,0 c 69.48,0.22 139.34,-1.69 177,0 m -177,0 c 41.92,-0.77 83.24,0 177,0 m 0,0 c 10.59,0.08 19.89,6.66 18.5,18.5 M 195.5,0 c 12.08,-2.2 20.15,3.93 18.5,18.5 m 0,0 c 1.2,12.13 0.76,24.82 0,37 m 0,-37 c -1.1,14.52 0.4,27.81 0,37 m 0,0 C 213.29,68.16 208.33,73.05 195.5,74 M 214,55.5 c -1.8,10.42 -7.46,18.94 -18.5,18.5 m 0,0 C 135.99,71.97 76.69,71.12 18.5,74 m 177,0 C 138.08,73.69 81.94,73.59 18.5,74 m 0,0 C 5.47,75.53 1.45,68.85 0,55.5 M 18.5,74 C 7.29,75 -0.3,66.66 0,55.5 m 0,0 C -0.88,40.15 -2.21,28.24 0,18.5 m 0,37 c 0.3,-6.73 -0.65,-15.81 0,-37 m 0,0 C -1.85,7.22 6.42,-1.85 18.5,0 M 0,18.5 C -1.17,5.49 6.88,-1.08 18.5,0"
         stroke="#e67700"
         stroke-width="4"
         fill="none"
         id="path876" />
    </g>
    <g
       transform="translate(383.81144,2439.0589)"
       id="g882">
      <text
         x="0"
         y="25"
         font-family="'FG Virgil'"
         font-size="28px"
         fill="#000000"
         text-anchor="start"
         style="white-space:pre;fill:#ffffff"
         direction="ltr"
         id="text880">release/v0.4.0</text>
    </g>
    <g
       stroke-linecap="round"
       id="g896"
       transform="translate(-53.938655,-1783.4833)">
      <g
         transform="translate(287.22456,4239.0276)"
         id="g886">
        <path
           d="M -0.46,0.97 C 22.69,0.84 115.33,-0.34 138.51,-0.73 M 1.49,0.44 c 23.1,-0.49 113.68,-2.85 136.48,-2.92"
           stroke="#000000"
           stroke-width="4"
           fill="none"
           id="path884" />
      </g>
      <g
         transform="translate(287.22456,4239.0276)"
         id="g890">
        <path
           d="M 111.57,9.53 C 118.6,6.96 125.05,1.76 139.76,-2.61 M 109.41,8.26 c 11.37,-4.83 21.72,-8.61 28.23,-10.7"
           stroke="#000000"
           stroke-width="4"
           fill="none"
           id="path888" />
      </g>
      <g
         transform="translate(287.22456,4239.0276)"
         id="g894">
        <path
           d="m 111.24,-10.99 c 7.13,2.9 13.67,3.18 28.52,8.38 m -30.69,-9.65 c 11.53,2.81 22.01,6.66 28.57,9.82"
           stroke="#000000"
           stroke-width="4"
           fill="none"
           id="path892" />
      </g>
    </g>
    <g
       stroke-linecap="round"
       id="g910"
       transform="translate(-53.938655,-1783.4833)">
      <g
         transform="translate(652.25009,4240.2434)"
         id="g900">
        <path
           d="M 0.97,0.77 C 19.86,0.55 94.79,-1.12 113.42,-1.78 M 0.03,0.13 c 18.78,-0.5 94.14,-3.19 112.82,-3.57"
           stroke="#000000"
           stroke-width="4"
           fill="none"
           id="path898" />
      </g>
      <g
         transform="translate(652.25009,4240.2434)"
         id="g904">
        <path
           d="m 86.26,8.82 c 8.8,-4.67 15.05,-6.44 26.46,-10.81 M 84.99,8.05 c 7.84,-3.42 16.84,-7.57 27.9,-12.08"
           stroke="#000000"
           stroke-width="4"
           fill="none"
           id="path902" />
      </g>
      <g
         transform="translate(652.25009,4240.2434)"
         id="g908">
        <path
           d="m 85.66,-11.69 c 8.91,1.64 15.34,6.18 27.06,9.7 M 84.4,-12.46 c 7.9,3.05 17.09,5.36 28.49,8.43"
           stroke="#000000"
           stroke-width="4"
           fill="none"
           id="path906" />
      </g>
    </g>
    <g
       stroke-linecap="round"
       transform="translate(716.02573,2422.0589)"
       id="g916">
      <path
         d="m 17.73,1.62 179.06,-0.44 8.27,0.13 3.45,5.1 5.07,9.2 0.72,38.7 -2.54,9.33 -4.15,5.78 -11.44,3.01 L 17.84,74.08 9.23,73.81 1.64,65.33 0.92,59.76 2.05,16.1 5.57,6.1 12.29,0.75 18.72,-0.28"
         stroke="none"
         stroke-width="0"
         fill="#82c91e"
         id="path912" />
      <path
         d="m 18.5,0 m 0,0 c 55.46,0.28 113.45,2.76 177,0 m -177,0 c 36.05,0.28 74.53,0.49 177,0 m 0,0 c 12.12,-1.91 19.93,4.22 18.5,18.5 M 195.5,0 c 12.83,-0.21 20.56,7.59 18.5,18.5 m 0,0 c 1.92,10.29 -1.4,21.3 0,37 m 0,-37 c -0.12,11.8 0.48,22.79 0,37 m 0,0 C 212.44,66.17 206.71,74.38 195.5,74 M 214,55.5 c 0.73,14.25 -8.04,17.56 -18.5,18.5 m 0,0 c -47.49,-2.38 -95.54,-2.66 -177,0 m 177,0 c -44.01,-0.36 -86.6,-0.62 -177,0 m 0,0 C 7.14,74.87 -0.26,66.81 0,55.5 M 18.5,74 C 7.99,75.79 1.33,67.16 0,55.5 m 0,0 c -1.63,-9.26 1.18,-16.95 0,-37 m 0,37 C -0.65,42.35 0.4,27.22 0,18.5 m 0,0 C -1.02,5.58 6.78,-0.94 18.5,0 M 0,18.5 C 0.41,5.92 7.44,-1.3 18.5,0"
         stroke="#5c940d"
         stroke-width="4"
         fill="none"
         id="path914" />
    </g>
    <g
       transform="translate(790.52573,2433.8446)"
       id="g920">
      <text
         x="0"
         y="33"
         font-family="'FG Virgil'"
         font-size="36px"
         fill="#000000"
         text-anchor="start"
         style="white-space:pre;fill:#ffffff"
         direction="ltr"
         id="text918">main</text>
    </g>
    <g
       stroke-linecap="round"
       transform="translate(909.02573,2470.0589)"
       id="g926">
      <path
         d="m 43.11,0.81 c 8.62,-1.5 20.03,-1.41 29.04,0.39 9.01,1.79 19.24,6.2 25.02,10.38 5.79,4.18 9.11,9.78 9.69,14.69 0.58,4.91 -1.71,10.48 -6.19,14.76 C 96.2,45.31 88.35,49.55 80.03,51.95 71.71,54.36 60.6,55.65 50.76,55.46 40.93,55.26 28.91,53.56 21.02,50.77 13.13,47.98 6.55,43.42 3.41,38.73 0.27,34.03 0,27.51 2.17,22.59 4.35,17.66 8.41,12.93 16.46,9.19 c 8.05,-3.74 26.95,-7.64 34,-9.02 7.05,-1.39 8.23,0.39 8.31,0.72 M 37.27,0.2 c 8.82,-1.97 21.51,-1.05 30.57,0.36 9.07,1.42 17.13,4.38 23.83,8.12 6.7,3.73 14.31,9.6 16.37,14.31 2.06,4.7 -0.43,9.52 -4.01,13.9 -3.59,4.39 -9.67,9.25 -17.5,12.41 -7.83,3.16 -19.8,5.87 -29.47,6.53 C 47.38,56.48 36.95,55.61 28.48,53.22 20.01,50.83 10.83,45.91 6.25,41.5 1.66,37.09 0.28,32.07 0.99,26.75 1.7,21.43 4.88,13.75 10.53,9.59 16.18,5.43 30.39,3.27 34.89,1.78 39.38,0.3 37.06,0.24 37.49,0.68"
         stroke="#5c940d"
         stroke-width="2"
         fill="none"
         id="path924" />
    </g>
    <g
       transform="translate(930.02573,2485.0589)"
       id="g930">
      <text
         x="0"
         y="20"
         font-family="'Cascadia Code'"
         font-size="20px"
         fill="#000000"
         text-anchor="start"
         style="white-space:pre;fill:#82c91e;fill-opacity:1"
         direction="ltr"
         id="text928">v0.4.0</text>
    </g>
  </g>
  <g
     stroke-linecap="round"
     transform="translate(1075.6368,2346.3212)"
     id="g934"
     style="fill:#808080;stroke:#666666;stroke-opacity:1">
    <path
       d="M 2.48,-0.18 C 122.45,2.37 239.23,0.43 322.57,1.16 M -0.46,0.05 c 64.43,4.14 129.36,2.46 323.4,-0.11 m 1.85,2.98 c 1.2,103.76 1.4,210.4 -2.55,268.96 m 1.38,-273.3 c -2.02,65.03 -4.68,129.13 -0.04,276 m -3.79,0.22 c -90.81,5.1 -182.1,2.93 -318.68,0.81 M 321.29,274.4 C 198.06,269.41 71.38,270.94 0.35,273.53 m 0.24,1.65 C 6.13,210.85 2.27,151.66 -2.2,-2.24 m 1.12,275.61 C 2.2,185.33 1.8,99.61 1.13,0.79"
       stroke="#000000"
       stroke-width="1"
       fill="none"
       id="path932"
       style="fill:#808080;stroke:#666666;stroke-opacity:1" />
  </g>
  <g
     transform="translate(1126.8868,2461.2672)"
     id="g938"
     style="fill:#808080">
    <text
       x="0"
       y="25"
       font-family="'FG Virgil'"
       font-size="28px"
       fill="#000000"
       text-anchor="start"
       style="white-space:pre;fill:#808080"
       direction="ltr"
       id="text936">Desenvolvimento</text>
  </g>
  <g
     transform="translate(1180.6368,2518.2672)"
     id="g942">
    <text
       x="0"
       y="28"
       font-family="'Cascadia Code'"
       font-size="28px"
       fill="#c92a2a"
       text-anchor="start"
       style="white-space:pre"
       direction="ltr"
       id="text940">v0.4.0</text>
  </g>
  <g
     stroke-linecap="round"
     transform="translate(1351.8868,2297.5172)"
     id="g946"
     style="fill:none;stroke:#666666;stroke-opacity:1">
    <path
       d="m 207.23,-0.92 c 79.31,71.81 161.26,142.25 207.04,184.71 M 207.37,-0.37 c 54.32,50.93 110.04,100.75 207.13,185.73 m -0.58,-0.57 C 338.13,253.24 259.37,321.01 206.2,368.63 M 413.64,184.33 C 335.51,255.3 258.69,323.09 206.26,369.3 m 2.12,0.41 C 164.91,331.98 123.57,295.49 -0.95,183.8 M 206.27,368.48 C 162.78,330.76 118.13,290.78 -0.64,184.57 m -0.62,-0.2 C 65.15,123.55 130.54,65.92 206.15,0.19 M -0.49,184.73 C 49.11,143.03 96.68,100.15 207.34,-0.1"
       stroke="#000000"
       stroke-width="1"
       fill="none"
       id="path944"
       style="fill:none;stroke:#666666;stroke-opacity:1" />
  </g>
  <g
     transform="translate(1474.3868,2458.5172)"
     id="g950"
     style="fill:#808080">
    <text
       x="0"
       y="25"
       font-family="'FG Virgil'"
       font-size="28px"
       fill="#000000"
       text-anchor="start"
       style="white-space:pre;fill:#808080"
       direction="ltr"
       id="text948">Homologação</text>
  </g>
  <g
     transform="translate(1513.1368,2521.7672)"
     id="g954">
    <text
       x="0"
       y="28"
       font-family="'Cascadia Code'"
       font-size="28px"
       fill="#e67700"
       text-anchor="start"
       style="white-space:pre"
       direction="ltr"
       id="text952">v0.3.1</text>
  </g>
  <g
     transform="translate(54.793874,2257.8922)"
     id="g972"
     style="fill:#808080">
    <text
       x="0"
       y="25"
       font-family="'FG Virgil'"
       font-size="28px"
       fill="#000000"
       text-anchor="start"
       style="white-space:pre;fill:#808080"
       direction="ltr"
       id="text968">- História E: desenvolvimento de uma nova funcionalidade</text>
    <text
       x="0"
       y="61"
       font-family="'FG Virgil'"
       font-size="28px"
       fill="#000000"
       text-anchor="start"
       style="white-space:pre;fill:#808080"
       direction="ltr"
       id="text970">- correção de um bug da história D disponível em produção</text>
  </g>
  <g
     stroke-linecap="round"
     transform="translate(1076.907,2835.5788)"
     id="g976"
     style="fill:#808080;stroke:#666666;stroke-opacity:1">
    <path
       d="M -2.76,0.98 C 121.69,6.66 248.38,6.5 324.62,-1.69 M 0.17,1 C 102.31,2.47 205.79,2.78 322.65,0.49 m 0.26,0.04 c 2.03,57.88 -2.95,111.66 -0.01,272.6 m -1.58,-272 c -1.19,65.76 -2.42,132.37 0.83,274.12 m 2.67,-0.9 C 229.5,270.59 134.19,273.97 0.8,276.83 m 322.4,-2.17 C 249.84,273.61 176.86,275 1.18,274.46 m 1.87,-2.82 C -0.01,216.17 2.93,154.44 0.62,-2.69 M -0.27,274.27 C -2.99,199.26 -0.45,123.53 1.05,0.68"
       stroke="#000000"
       stroke-width="1"
       fill="none"
       id="path974"
       style="fill:#808080;stroke:#666666;stroke-opacity:1" />
  </g>
  <g
     transform="translate(1128.157,2950.5248)"
     id="g980"
     style="fill:#808080">
    <text
       x="0"
       y="25"
       font-family="'FG Virgil'"
       font-size="28px"
       fill="#000000"
       text-anchor="start"
       style="white-space:pre;fill:#808080"
       direction="ltr"
       id="text978">Desenvolvimento</text>
  </g>
  <g
     transform="translate(1181.907,3007.5248)"
     id="g984">
    <text
       x="0"
       y="28"
       font-family="'Cascadia Code'"
       font-size="28px"
       fill="#c92a2a"
       text-anchor="start"
       style="white-space:pre"
       direction="ltr"
       id="text982">v0.4.0</text>
  </g>
  <g
     stroke-linecap="round"
     transform="translate(1353.157,2789.2748)"
     id="g988"
     style="fill:none;stroke:#666666;stroke-opacity:1">
    <path
       d="m 208.37,0.31 c 41.95,39.31 81.28,75.58 206.85,184.15 M 207.5,0.42 c 65.68,57.6 129.76,114.52 206.26,185.17 m 0.45,-1.87 C 347.87,243.97 283.99,300.45 205.76,369.24 m 207.9,-184.33 c -45.48,42.14 -90.92,83.39 -206.35,183.54 m -1.36,-0.03 C 128.43,299.28 49.74,227.31 0.01,185.14 M 206.44,369.48 C 134.3,306.04 61.78,240.47 -0.2,185.62 m 1.61,0.29 C 84.57,112.23 164.64,37.92 207.62,-0.11 M 0.49,185.63 C 58.97,134.58 117.17,82.14 207.03,0.39"
       stroke="#000000"
       stroke-width="1"
       fill="none"
       id="path986"
       style="fill:none;stroke:#666666;stroke-opacity:1" />
  </g>
  <g
     transform="translate(1475.657,2950.2748)"
     id="g992"
     style="fill:#808080">
    <text
       x="0"
       y="25"
       font-family="'FG Virgil'"
       font-size="28px"
       fill="#000000"
       text-anchor="start"
       style="white-space:pre;fill:#808080"
       direction="ltr"
       id="text990">Homologação</text>
  </g>
  <g
     transform="translate(1514.407,3013.5248)"
     id="g996">
    <text
       x="0"
       y="28"
       font-family="'Cascadia Code'"
       font-size="28px"
       fill="#e67700"
       text-anchor="start"
       style="white-space:pre"
       direction="ltr"
       id="text994">v0.4.0</text>
  </g>
  <g
     transform="translate(143.93995,2939.4831)"
     id="g1012"
     style="fill:#808080">
    <text
       x="0"
       y="25"
       font-family="'FG Virgil'"
       font-size="28px"
       fill="#000000"
       text-anchor="start"
       style="white-space:pre;fill:#808080"
       direction="ltr"
       id="text1010">- homologação da funcionalidade da história E</text>
  </g>
  <g
     stroke-linecap="round"
     transform="translate(1075.2403,3232.2454)"
     id="g1016"
     style="fill:#808080;stroke:#666666;stroke-opacity:1">
    <path
       d="m 1.02,-0.37 c 71.95,-1.72 139.9,-0.7 322.58,-0.35 M 0.68,-0.37 c 106.59,0.07 214.95,-0.62 320.58,1.08 m -1.1,-0.65 c 7.89,92.96 5.01,188.87 0.21,272.63 m 0.92,-272.71 c -1.05,73.94 -0.24,145.98 1.39,274.21 m -1.82,2.41 C 209.77,273.79 102.82,269.79 -2.25,273.21 m 324.03,2.08 c -108.2,-5.02 -216.6,-3.88 -322.31,-1.38 m 1.83,1.48 C -1.8,194.37 2.09,115.25 1.91,-2.93 M -0.4,275.38 C -4.09,203 -2.32,131.51 -0.3,0.97"
       stroke="#000000"
       stroke-width="1"
       fill="none"
       id="path1014"
       style="fill:#808080;stroke:#666666;stroke-opacity:1" />
  </g>
  <g
     transform="translate(1126.4903,3347.1915)"
     id="g1020"
     style="fill:#808080">
    <text
       x="0"
       y="25"
       font-family="'FG Virgil'"
       font-size="28px"
       fill="#000000"
       text-anchor="start"
       style="white-space:pre;fill:#808080"
       direction="ltr"
       id="text1018">Desenvolvimento</text>
  </g>
  <g
     transform="translate(1180.2403,3404.1915)"
     id="g1024">
    <text
       x="0"
       y="28"
       font-family="'Cascadia Code'"
       font-size="28px"
       fill="#c92a2a"
       text-anchor="start"
       style="white-space:pre"
       direction="ltr"
       id="text1022">v0.4.0</text>
  </g>
  <g
     stroke-linecap="round"
     transform="translate(1351.4903,3183.4415)"
     id="g1028"
     style="fill:none;stroke:#666666">
    <path
       d="m 205.49,-1.37 c 69.94,63.5 140.06,125.67 209.76,186.43 M 206.94,0.02 c 71.34,64.43 144.29,129.95 207.56,184.24 m -1.09,0 c -45.32,41.67 -93.27,83.5 -206.75,183.75 M 414.11,184.74 C 367.64,224.49 321.98,265.5 207.06,368.4 m 0.84,1.07 C 154.55,321.92 105.43,279.45 -1.19,183.65 M 207,368.84 C 155.17,322.67 103.03,277.28 0.04,184.88 m -0.55,1.27 C 69.55,123.52 139.52,58.71 207.98,0.54 M 0.06,185.2 C 55.6,135.57 112.83,85.76 206.91,-0.13"
       stroke="#000000"
       stroke-width="1"
       fill="none"
       id="path1026"
       style="fill:none;stroke:#666666;stroke-opacity:1" />
  </g>
  <g
     transform="translate(1473.9903,3344.4415)"
     id="g1032"
     style="fill:#808080">
    <text
       x="0"
       y="25"
       font-family="'FG Virgil'"
       font-size="28px"
       fill="#000000"
       text-anchor="start"
       style="white-space:pre;fill:#808080"
       direction="ltr"
       id="text1030">Homologação</text>
  </g>
  <g
     transform="translate(1512.7403,3407.6915)"
     id="g1036">
    <text
       x="0"
       y="28"
       font-family="'Cascadia Code'"
       font-size="28px"
       fill="#e67700"
       text-anchor="start"
       style="white-space:pre"
       direction="ltr"
       id="text1034">v0.4.0</text>
  </g>
  <g
     transform="translate(98.146138,3341.3165)"
     id="g1052"
     style="fill:#808080">
    <text
       x="0"
       y="25"
       font-family="'FG Virgil'"
       font-size="28px"
       fill="#000000"
       text-anchor="start"
       style="white-space:pre;fill:#808080"
       direction="ltr"
       id="text1050">- funcionalidade da história E disponível em produção</text>
  </g>
  <g
     stroke-linecap="round"
     transform="translate(1067.2403,1897.2454)"
     id="g1056"
     style="fill:#808080;stroke:#666666;stroke-opacity:1">
    <path
       d="M -2.18,1.64 C 97.34,-2.45 197.1,-1.65 322.42,0.05 M -0.37,0.11 c 74.8,-2.86 152.31,-2.41 322.94,-1.36 m 0.9,3.03 c 1.8,63.75 -1.85,129.77 -2.41,269.6 m 2.37,-271.7 c 1.34,93.86 0.88,188.3 -0.17,273.97 m 1.07,2.99 C 228.59,272.21 130.84,273.74 0.64,273.7 m 321.25,-0.78 c -108.12,-2.64 -217.22,-2.81 -322.03,2.61 m 2.81,-4.14 C 4.9,215.24 5.41,159.71 -0.08,-0.63 M -0.85,275.16 C -2.13,199.53 -1.68,128.04 1.24,1.51"
       stroke="#000000"
       stroke-width="1"
       fill="none"
       id="path1054"
       style="fill:#808080;stroke:#666666;stroke-opacity:1" />
  </g>
  <g
     transform="translate(1118.4903,2012.1915)"
     id="g1060"
     style="fill:#808080">
    <text
       x="0"
       y="25"
       font-family="'FG Virgil'"
       font-size="28px"
       fill="#000000"
       text-anchor="start"
       style="white-space:pre;fill:#808080"
       direction="ltr"
       id="text1058">Desenvolvimento</text>
  </g>
  <g
     transform="translate(1172.2403,2069.1915)"
     id="g1064">
    <text
       x="0"
       y="28"
       font-family="'Cascadia Code'"
       font-size="28px"
       fill="#c92a2a"
       text-anchor="start"
       style="white-space:pre"
       direction="ltr"
       id="text1062">v0.3.1</text>
  </g>
  <g
     stroke-linecap="round"
     transform="translate(1343.4903,1848.4415)"
     id="g1068"
     style="fill:none;stroke:#666666;stroke-opacity:1">
    <path
       d="M 207.89,0.42 C 255.01,41.45 299.54,81.5 414.2,186.23 M 207.47,0.54 c 56.89,51.28 112.01,101.34 206.38,184.44 m 0.31,-0.69 C 347.14,246.29 276.2,308.5 207.72,369.07 M 413.88,184.91 c -74.14,66.91 -149.57,132.67 -206.65,183.5 m -0.25,0.37 C 130.89,303.03 54.07,236.02 -0.2,183.88 M 206.63,368.11 C 154.76,321.1 102.88,273.34 -0.53,185.13 m -0.63,1.11 C 80.53,112.55 160.73,40.69 207.48,-0.45 M -0.74,184.83 C 49.94,141.09 101.31,94.61 207.75,0.28"
       stroke="#000000"
       stroke-width="1"
       fill="none"
       id="path1066"
       style="fill:none;stroke:#666666;stroke-opacity:1" />
  </g>
  <g
     transform="translate(1465.9903,2009.4415)"
     id="g1072"
     style="fill:#808080">
    <text
       x="0"
       y="25"
       font-family="'FG Virgil'"
       font-size="28px"
       fill="#000000"
       text-anchor="start"
       style="white-space:pre;fill:#808080"
       direction="ltr"
       id="text1070">Homologação</text>
  </g>
  <g
     transform="translate(1504.7403,2072.6915)"
     id="g1076">
    <text
       x="0"
       y="28"
       font-family="'Cascadia Code'"
       font-size="28px"
       fill="#e67700"
       text-anchor="start"
       style="white-space:pre"
       direction="ltr"
       id="text1074">v0.3.1</text>
  </g>
  <g
     transform="translate(95.864156,1989.7689)"
     id="g1096"
     style="fill:#808080">
    <text
       x="0"
       y="25"
       font-family="'FG Virgil'"
       font-size="28px"
       fill="#000000"
       text-anchor="start"
       style="white-space:pre;fill:#808080"
       direction="ltr"
       id="text1090">- Homologação da correção de um bug da história D</text>
    <text
       x="0"
       y="61"
       font-family="'FG Virgil'"
       font-size="28px"
       fill="#000000"
       text-anchor="start"
       style="white-space:pre;fill:#808080"
       direction="ltr"
       id="text1092">- funcionalidade da história C disponível em produção</text>
    <text
       x="0"
       y="97"
       font-family="'FG Virgil'"
       font-size="28px"
       fill="#000000"
       text-anchor="start"
       style="white-space:pre;fill:#808080"
       direction="ltr"
       id="text1094" />
  </g>
  <g
     transform="translate(96.998128,1439.3958)"
     id="g1104"
     style="fill:#808080">
    <text
       x="0"
       y="25"
       font-family="'FG Virgil'"
       font-size="28px"
       fill="#000000"
       text-anchor="start"
       style="white-space:pre;fill:#808080"
       direction="ltr"
       id="text1098">- História D: correção de bug</text>
    <text
       x="0"
       y="61"
       font-family="'FG Virgil'"
       font-size="28px"
       fill="#000000"
       text-anchor="start"
       style="white-space:pre;fill:#808080"
       direction="ltr"
       id="text1100">- homologação da funcionalidade da história C</text>
    <text
       x="0"
       y="97"
       font-family="'FG Virgil'"
       font-size="28px"
       fill="#000000"
       text-anchor="start"
       style="white-space:pre;fill:#808080"
       direction="ltr"
       id="text1102">- funcionalidade da história B disponível em produção</text>
  </g>
  <g
     transform="translate(1502.6534,163.99698)"
     id="g1108"
     style="fill:#808080">
    <text
       x="0"
       y="25"
       font-family="'FG Virgil'"
       font-size="28px"
       fill="#000000"
       text-anchor="start"
       style="white-space:pre;fill:#808080"
       direction="ltr"
       id="text1106">AMBIENTES</text>
  </g>
  <g
     transform="translate(270.41904,161.85418)"
     id="g1112"
     style="fill:#808080">
    <text
       x="0"
       y="25"
       font-family="'FG Virgil'"
       font-size="28px"
       fill="#000000"
       text-anchor="start"
       style="white-space:pre;fill:#808080"
       direction="ltr"
       id="text1110">BRANCHS (RAMIFICAÇÕES)</text>
  </g>
  <g
     stroke-linecap="round"
     transform="translate(1787.4806,1056.3043)"
     id="g732"
     style="stroke:#666666;stroke-opacity:1;stroke-width:2;stroke-miterlimit:4;stroke-dasharray:none">
    <path
       d="m 323.75,161.87 c 0,4.04 -0.15,8.08 -0.45,12.1 -0.3,4.02 -0.76,8.04 -1.36,12.03 -0.6,3.99 -1.35,7.96 -2.25,11.9 -0.9,3.93 -1.94,7.84 -3.13,11.69 -1.19,3.85 -2.53,7.67 -4,11.42 -1.47,3.76 -3.09,7.47 -4.84,11.1 -1.75,3.63 -3.64,7.21 -5.66,10.7 -2.01,3.49 -4.17,6.92 -6.44,10.25 -2.27,3.33 -4.67,6.59 -7.19,9.74 -2.51,3.15 -5.15,6.22 -7.89,9.18 -2.74,2.95 -5.61,5.82 -8.56,8.56 -2.96,2.74 -6.03,5.38 -9.18,7.89 -3.15,2.52 -6.41,4.92 -9.74,7.19 -3.33,2.27 -6.76,4.43 -10.25,6.44 -3.49,2.02 -7.07,3.91 -10.7,5.66 -3.63,1.75 -7.34,3.37 -11.1,4.84 -3.75,1.47 -7.57,2.81 -11.42,4 -3.85,1.19 -7.76,2.23 -11.69,3.13 -3.94,0.9 -7.91,1.65 -11.9,2.25 -3.99,0.6 -8.01,1.06 -12.03,1.36 -4.02,0.3 -8.06,0.45 -12.1,0.45 -4.03,0 -8.07,-0.15 -12.09,-0.45 -4.02,-0.3 -8.04,-0.76 -12.03,-1.36 -3.99,-0.6 -7.96,-1.35 -11.9,-2.25 -3.93,-0.9 -7.84,-1.94 -11.69,-3.13 -3.85,-1.19 -7.67,-2.53 -11.42,-4 -3.76,-1.47 -7.47,-3.09 -11.1,-4.84 -3.63,-1.75 -7.21,-3.64 -10.7,-5.66 -3.49,-2.01 -6.92,-4.17 -10.25,-6.44 -3.33,-2.27 -6.59,-4.67 -9.74,-7.19 -3.15,-2.51 -6.22,-5.15 -9.18,-7.89 -2.95,-2.74 -5.82,-5.61 -8.56,-8.56 -2.74,-2.96 -5.38,-6.03 -7.89,-9.18 -2.52,-3.15 -4.92,-6.41 -7.19,-9.74 -2.27,-3.33 -4.43,-6.76 -6.44,-10.25 -2.02,-3.49 -3.91,-7.07 -5.66,-10.7 -1.75,-3.63 -3.37,-7.34 -4.84,-11.1 -1.47,-3.75 -2.81,-7.57 -4,-11.42 C 6,205.74 4.96,201.83 4.06,197.9 3.16,193.96 2.41,189.99 1.81,186 1.21,182.01 0.75,177.99 0.45,173.97 0.15,169.95 0,165.91 0,161.88 c 0,-4.04 0.15,-8.08 0.45,-12.1 0.3,-4.02 0.76,-8.04 1.36,-12.03 0.6,-3.99 1.35,-7.96 2.25,-11.9 0.9,-3.93 1.94,-7.84 3.13,-11.69 1.19,-3.85 2.53,-7.67 4,-11.42 1.47,-3.76 3.09,-7.47 4.84,-11.1 1.75,-3.63 3.64,-7.21 5.66,-10.7 2.01,-3.49 4.17,-6.92 6.44,-10.25 2.27,-3.33 4.67,-6.59 7.19,-9.74 2.51,-3.15 5.15,-6.22 7.89,-9.18 2.74,-2.95 5.61,-5.82 8.56,-8.56 2.96,-2.74 6.03,-5.38 9.18,-7.89 3.15,-2.52 6.41,-4.92 9.74,-7.19 3.33,-2.27 6.76,-4.43 10.25,-6.44 3.49,-2.02 7.07,-3.91 10.7,-5.66 3.63,-1.75 7.34,-3.37 11.1,-4.84 3.75,-1.47 7.57,-2.81 11.42,-4 3.85,-1.19 7.76,-2.23 11.69,-3.13 3.94,-0.9 7.91,-1.65 11.9,-2.25 3.99,-0.6 8.01,-1.06 12.03,-1.36 4.02,-0.3 8.06,-0.45 12.09,-0.45 4.04,0 8.08,0.15 12.1,0.45 4.02,0.3 8.04,0.76 12.03,1.36 3.99,0.6 7.96,1.35 11.9,2.25 3.93,0.9 7.84,1.94 11.69,3.13 3.85,1.19 7.67,2.53 11.42,4 3.76,1.47 7.47,3.09 11.1,4.84 3.63,1.75 7.21,3.64 10.7,5.66 3.49,2.01 6.92,4.17 10.25,6.44 3.33,2.27 6.59,4.67 9.74,7.19 3.15,2.51 6.22,5.15 9.18,7.89 2.95,2.74 5.82,5.61 8.56,8.56 2.74,2.96 5.38,6.03 7.89,9.18 2.52,3.15 4.92,6.41 7.19,9.74 2.27,3.33 4.43,6.76 6.44,10.25 2.02,3.49 3.91,7.07 5.66,10.7 1.75,3.63 3.37,7.34 4.84,11.1 1.47,3.75 2.81,7.57 4,11.42 1.19,3.85 2.23,7.76 3.13,11.69 0.9,3.94 1.65,7.91 2.25,11.9 0.6,3.99 1.06,8.01 1.36,12.03 0.3,4.02 0.45,8.06 0.45,12.09"
       stroke="#000000"
       stroke-width="1"
       fill="none"
       id="path730"
       style="stroke:#666666;stroke-opacity:1;stroke-width:2;stroke-miterlimit:4;stroke-dasharray:none" />
  </g>
  <g
     transform="translate(1891.2306,1193.7459)"
     id="g736"
     style="fill:#808080;fill-opacity:1;stroke:none;stroke-opacity:1">
    <text
       x="0"
       y="25"
       font-family="'FG Virgil'"
       font-size="28px"
       fill="#000000"
       text-anchor="start"
       style="white-space:pre;fill:#808080;fill-opacity:1;stroke:none;stroke-opacity:1"
       direction="ltr"
       id="text734">Produção</text>
  </g>
  <g
     transform="translate(1905.7306,1255.1601)"
     id="g740">
    <text
       x="0"
       y="28"
       font-family="'Cascadia Code'"
       font-size="28px"
       fill="#5c940d"
       text-anchor="start"
       style="white-space:pre"
       direction="ltr"
       id="text738">v0.1.0</text>
  </g>
  <g
     stroke-linecap="round"
     transform="translate(1788.5629,1487.9114)"
     id="g836"
     style="stroke:#666666;stroke-opacity:1;stroke-width:2;stroke-miterlimit:4;stroke-dasharray:none">
    <path
       d="m 323.75,161.87 c 0,4.04 -0.15,8.08 -0.45,12.1 -0.3,4.02 -0.76,8.04 -1.36,12.03 -0.6,3.99 -1.35,7.96 -2.25,11.9 -0.9,3.93 -1.94,7.84 -3.13,11.69 -1.19,3.85 -2.53,7.67 -4,11.42 -1.47,3.76 -3.09,7.47 -4.84,11.1 -1.75,3.63 -3.64,7.21 -5.66,10.7 -2.01,3.49 -4.17,6.92 -6.44,10.25 -2.27,3.33 -4.67,6.59 -7.19,9.74 -2.51,3.15 -5.15,6.22 -7.89,9.18 -2.74,2.95 -5.61,5.82 -8.56,8.56 -2.96,2.74 -6.03,5.38 -9.18,7.89 -3.15,2.52 -6.41,4.92 -9.74,7.19 -3.33,2.27 -6.76,4.43 -10.25,6.44 -3.49,2.02 -7.07,3.91 -10.7,5.66 -3.63,1.75 -7.34,3.37 -11.1,4.84 -3.75,1.47 -7.57,2.81 -11.42,4 -3.85,1.19 -7.76,2.23 -11.69,3.13 -3.94,0.9 -7.91,1.65 -11.9,2.25 -3.99,0.6 -8.01,1.06 -12.03,1.36 -4.02,0.3 -8.06,0.45 -12.1,0.45 -4.03,0 -8.07,-0.15 -12.09,-0.45 -4.02,-0.3 -8.04,-0.76 -12.03,-1.36 -3.99,-0.6 -7.96,-1.35 -11.9,-2.25 -3.93,-0.9 -7.84,-1.94 -11.69,-3.13 -3.85,-1.19 -7.67,-2.53 -11.42,-4 -3.76,-1.47 -7.47,-3.09 -11.1,-4.84 -3.63,-1.75 -7.21,-3.64 -10.7,-5.66 -3.49,-2.01 -6.92,-4.17 -10.25,-6.44 -3.33,-2.27 -6.59,-4.67 -9.74,-7.19 -3.15,-2.51 -6.22,-5.15 -9.18,-7.89 -2.95,-2.74 -5.82,-5.61 -8.56,-8.56 -2.74,-2.96 -5.38,-6.03 -7.89,-9.18 -2.52,-3.15 -4.92,-6.41 -7.19,-9.74 -2.27,-3.33 -4.43,-6.76 -6.44,-10.25 -2.02,-3.49 -3.91,-7.07 -5.66,-10.7 -1.75,-3.63 -3.37,-7.34 -4.84,-11.1 -1.47,-3.75 -2.81,-7.57 -4,-11.42 C 6,205.74 4.96,201.83 4.06,197.9 3.16,193.96 2.41,189.99 1.81,186 1.21,182.01 0.75,177.99 0.45,173.97 0.15,169.95 0,165.91 0,161.88 c 0,-4.04 0.15,-8.08 0.45,-12.1 0.3,-4.02 0.76,-8.04 1.36,-12.03 0.6,-3.99 1.35,-7.96 2.25,-11.9 0.9,-3.93 1.94,-7.84 3.13,-11.69 1.19,-3.85 2.53,-7.67 4,-11.42 1.47,-3.76 3.09,-7.47 4.84,-11.1 1.75,-3.63 3.64,-7.21 5.66,-10.7 2.01,-3.49 4.17,-6.92 6.44,-10.25 2.27,-3.33 4.67,-6.59 7.19,-9.74 2.51,-3.15 5.15,-6.22 7.89,-9.18 2.74,-2.95 5.61,-5.82 8.56,-8.56 2.96,-2.74 6.03,-5.38 9.18,-7.89 3.15,-2.52 6.41,-4.92 9.74,-7.19 3.33,-2.27 6.76,-4.43 10.25,-6.44 3.49,-2.02 7.07,-3.91 10.7,-5.66 3.63,-1.75 7.34,-3.37 11.1,-4.84 3.75,-1.47 7.57,-2.81 11.42,-4 3.85,-1.19 7.76,-2.23 11.69,-3.13 3.94,-0.9 7.91,-1.65 11.9,-2.25 3.99,-0.6 8.01,-1.06 12.03,-1.36 4.02,-0.3 8.06,-0.45 12.09,-0.45 4.04,0 8.08,0.15 12.1,0.45 4.02,0.3 8.04,0.76 12.03,1.36 3.99,0.6 7.96,1.35 11.9,2.25 3.93,0.9 7.84,1.94 11.69,3.13 3.85,1.19 7.67,2.53 11.42,4 3.76,1.47 7.47,3.09 11.1,4.84 3.63,1.75 7.21,3.64 10.7,5.66 3.49,2.01 6.92,4.17 10.25,6.44 3.33,2.27 6.59,4.67 9.74,7.19 3.15,2.51 6.22,5.15 9.18,7.89 2.95,2.74 5.82,5.61 8.56,8.56 2.74,2.96 5.38,6.03 7.89,9.18 2.52,3.15 4.92,6.41 7.19,9.74 2.27,3.33 4.43,6.76 6.44,10.25 2.02,3.49 3.91,7.07 5.66,10.7 1.75,3.63 3.37,7.34 4.84,11.1 1.47,3.75 2.81,7.57 4,11.42 1.19,3.85 2.23,7.76 3.13,11.69 0.9,3.94 1.65,7.91 2.25,11.9 0.6,3.99 1.06,8.01 1.36,12.03 0.3,4.02 0.45,8.06 0.45,12.09"
       stroke="#000000"
       stroke-width="1"
       fill="none"
       id="path834"
       style="stroke:#666666;stroke-opacity:1;stroke-width:2;stroke-miterlimit:4;stroke-dasharray:none" />
  </g>
  <g
     transform="translate(1892.3129,1625.353)"
     id="g840"
     style="fill:#808080;fill-opacity:1;stroke:none;stroke-opacity:1">
    <text
       x="0"
       y="25"
       font-family="'FG Virgil'"
       font-size="28px"
       fill="#000000"
       text-anchor="start"
       style="white-space:pre;fill:#808080;fill-opacity:1;stroke:none;stroke-opacity:1"
       direction="ltr"
       id="text838">Produção</text>
  </g>
  <g
     transform="translate(1906.8129,1686.7672)"
     id="g844">
    <text
       x="0"
       y="28"
       font-family="'Cascadia Code'"
       font-size="28px"
       fill="#5c940d"
       text-anchor="start"
       style="white-space:pre"
       direction="ltr"
       id="text842">v0.2.0</text>
  </g>
  <g
     stroke-linecap="round"
     transform="translate(1798.2296,2322.9117)"
     id="g958"
     style="stroke:#666666;stroke-opacity:1;stroke-width:2;stroke-miterlimit:4;stroke-dasharray:none">
    <path
       d="m 323.75,161.87 c 0,4.04 -0.15,8.08 -0.45,12.1 -0.3,4.02 -0.76,8.04 -1.36,12.03 -0.6,3.99 -1.35,7.96 -2.25,11.9 -0.9,3.93 -1.94,7.84 -3.13,11.69 -1.19,3.85 -2.53,7.67 -4,11.42 -1.47,3.76 -3.09,7.47 -4.84,11.1 -1.75,3.63 -3.64,7.21 -5.66,10.7 -2.01,3.49 -4.17,6.92 -6.44,10.25 -2.27,3.33 -4.67,6.59 -7.19,9.74 -2.51,3.15 -5.15,6.22 -7.89,9.18 -2.74,2.95 -5.61,5.82 -8.56,8.56 -2.96,2.74 -6.03,5.38 -9.18,7.89 -3.15,2.52 -6.41,4.92 -9.74,7.19 -3.33,2.27 -6.76,4.43 -10.25,6.44 -3.49,2.02 -7.07,3.91 -10.7,5.66 -3.63,1.75 -7.34,3.37 -11.1,4.84 -3.75,1.47 -7.57,2.81 -11.42,4 -3.85,1.19 -7.76,2.23 -11.69,3.13 -3.94,0.9 -7.91,1.65 -11.9,2.25 -3.99,0.6 -8.01,1.06 -12.03,1.36 -4.02,0.3 -8.06,0.45 -12.1,0.45 -4.03,0 -8.07,-0.15 -12.09,-0.45 -4.02,-0.3 -8.04,-0.76 -12.03,-1.36 -3.99,-0.6 -7.96,-1.35 -11.9,-2.25 -3.93,-0.9 -7.84,-1.94 -11.69,-3.13 -3.85,-1.19 -7.67,-2.53 -11.42,-4 -3.76,-1.47 -7.47,-3.09 -11.1,-4.84 -3.63,-1.75 -7.21,-3.64 -10.7,-5.66 -3.49,-2.01 -6.92,-4.17 -10.25,-6.44 -3.33,-2.27 -6.59,-4.67 -9.74,-7.19 -3.15,-2.51 -6.22,-5.15 -9.18,-7.89 -2.95,-2.74 -5.82,-5.61 -8.56,-8.56 -2.74,-2.96 -5.38,-6.03 -7.89,-9.18 -2.52,-3.15 -4.92,-6.41 -7.19,-9.74 -2.27,-3.33 -4.43,-6.76 -6.44,-10.25 -2.02,-3.49 -3.91,-7.07 -5.66,-10.7 -1.75,-3.63 -3.37,-7.34 -4.84,-11.1 -1.47,-3.75 -2.81,-7.57 -4,-11.42 C 6,205.74 4.96,201.83 4.06,197.9 3.16,193.96 2.41,189.99 1.81,186 1.21,182.01 0.75,177.99 0.45,173.97 0.15,169.95 0,165.91 0,161.88 c 0,-4.04 0.15,-8.08 0.45,-12.1 0.3,-4.02 0.76,-8.04 1.36,-12.03 0.6,-3.99 1.35,-7.96 2.25,-11.9 0.9,-3.93 1.94,-7.84 3.13,-11.69 1.19,-3.85 2.53,-7.67 4,-11.42 1.47,-3.76 3.09,-7.47 4.84,-11.1 1.75,-3.63 3.64,-7.21 5.66,-10.7 2.01,-3.49 4.17,-6.92 6.44,-10.25 2.27,-3.33 4.67,-6.59 7.19,-9.74 2.51,-3.15 5.15,-6.22 7.89,-9.18 2.74,-2.95 5.61,-5.82 8.56,-8.56 2.96,-2.74 6.03,-5.38 9.18,-7.89 3.15,-2.52 6.41,-4.92 9.74,-7.19 3.33,-2.27 6.76,-4.43 10.25,-6.44 3.49,-2.02 7.07,-3.91 10.7,-5.66 3.63,-1.75 7.34,-3.37 11.1,-4.84 3.75,-1.47 7.57,-2.81 11.42,-4 3.85,-1.19 7.76,-2.23 11.69,-3.13 3.94,-0.9 7.91,-1.65 11.9,-2.25 3.99,-0.6 8.01,-1.06 12.03,-1.36 4.02,-0.3 8.06,-0.45 12.09,-0.45 4.04,0 8.08,0.15 12.1,0.45 4.02,0.3 8.04,0.76 12.03,1.36 3.99,0.6 7.96,1.35 11.9,2.25 3.93,0.9 7.84,1.94 11.69,3.13 3.85,1.19 7.67,2.53 11.42,4 3.76,1.47 7.47,3.09 11.1,4.84 3.63,1.75 7.21,3.64 10.7,5.66 3.49,2.01 6.92,4.17 10.25,6.44 3.33,2.27 6.59,4.67 9.74,7.19 3.15,2.51 6.22,5.15 9.18,7.89 2.95,2.74 5.82,5.61 8.56,8.56 2.74,2.96 5.38,6.03 7.89,9.18 2.52,3.15 4.92,6.41 7.19,9.74 2.27,3.33 4.43,6.76 6.44,10.25 2.02,3.49 3.91,7.07 5.66,10.7 1.75,3.63 3.37,7.34 4.84,11.1 1.47,3.75 2.81,7.57 4,11.42 1.19,3.85 2.23,7.76 3.13,11.69 0.9,3.94 1.65,7.91 2.25,11.9 0.6,3.99 1.06,8.01 1.36,12.03 0.3,4.02 0.45,8.06 0.45,12.09"
       stroke="#000000"
       stroke-width="1"
       fill="none"
       id="path956"
       style="stroke:#666666;stroke-opacity:1;stroke-width:2;stroke-miterlimit:4;stroke-dasharray:none" />
  </g>
  <g
     transform="translate(1901.9796,2460.353)"
     id="g962"
     style="fill:#808080;fill-opacity:1;stroke:none;stroke-opacity:1">
    <text
       x="0"
       y="25"
       font-family="'FG Virgil'"
       font-size="28px"
       fill="#000000"
       text-anchor="start"
       style="white-space:pre;fill:#808080;fill-opacity:1;stroke:none;stroke-opacity:1"
       direction="ltr"
       id="text960">Produção</text>
  </g>
  <g
     transform="translate(1916.4796,2521.7672)"
     id="g966">
    <text
       x="0"
       y="28"
       font-family="'Cascadia Code'"
       font-size="28px"
       fill="#5c940d"
       text-anchor="start"
       style="white-space:pre"
       direction="ltr"
       id="text964">v0.3.1</text>
  </g>
  <g
     stroke-linecap="round"
     transform="translate(1799.4998,2812.1693)"
     id="g1000"
     style="stroke:#666666;stroke-opacity:1;stroke-width:2;stroke-miterlimit:4;stroke-dasharray:none">
    <path
       d="m 323.75,161.87 c 0,4.04 -0.15,8.08 -0.45,12.1 -0.3,4.02 -0.76,8.04 -1.36,12.03 -0.6,3.99 -1.35,7.96 -2.25,11.9 -0.9,3.93 -1.94,7.84 -3.13,11.69 -1.19,3.85 -2.53,7.67 -4,11.42 -1.47,3.76 -3.09,7.47 -4.84,11.1 -1.75,3.63 -3.64,7.21 -5.66,10.7 -2.01,3.49 -4.17,6.92 -6.44,10.25 -2.27,3.33 -4.67,6.59 -7.19,9.74 -2.51,3.15 -5.15,6.22 -7.89,9.18 -2.74,2.95 -5.61,5.82 -8.56,8.56 -2.96,2.74 -6.03,5.38 -9.18,7.89 -3.15,2.52 -6.41,4.92 -9.74,7.19 -3.33,2.27 -6.76,4.43 -10.25,6.44 -3.49,2.02 -7.07,3.91 -10.7,5.66 -3.63,1.75 -7.34,3.37 -11.1,4.84 -3.75,1.47 -7.57,2.81 -11.42,4 -3.85,1.19 -7.76,2.23 -11.69,3.13 -3.94,0.9 -7.91,1.65 -11.9,2.25 -3.99,0.6 -8.01,1.06 -12.03,1.36 -4.02,0.3 -8.06,0.45 -12.1,0.45 -4.03,0 -8.07,-0.15 -12.09,-0.45 -4.02,-0.3 -8.04,-0.76 -12.03,-1.36 -3.99,-0.6 -7.96,-1.35 -11.9,-2.25 -3.93,-0.9 -7.84,-1.94 -11.69,-3.13 -3.85,-1.19 -7.67,-2.53 -11.42,-4 -3.76,-1.47 -7.47,-3.09 -11.1,-4.84 -3.63,-1.75 -7.21,-3.64 -10.7,-5.66 -3.49,-2.01 -6.92,-4.17 -10.25,-6.44 -3.33,-2.27 -6.59,-4.67 -9.74,-7.19 -3.15,-2.51 -6.22,-5.15 -9.18,-7.89 -2.95,-2.74 -5.82,-5.61 -8.56,-8.56 -2.74,-2.96 -5.38,-6.03 -7.89,-9.18 -2.52,-3.15 -4.92,-6.41 -7.19,-9.74 -2.27,-3.33 -4.43,-6.76 -6.44,-10.25 -2.02,-3.49 -3.91,-7.07 -5.66,-10.7 -1.75,-3.63 -3.37,-7.34 -4.84,-11.1 -1.47,-3.75 -2.81,-7.57 -4,-11.42 C 6,205.74 4.96,201.83 4.06,197.9 3.16,193.96 2.41,189.99 1.81,186 1.21,182.01 0.75,177.99 0.45,173.97 0.15,169.95 0,165.91 0,161.88 c 0,-4.04 0.15,-8.08 0.45,-12.1 0.3,-4.02 0.76,-8.04 1.36,-12.03 0.6,-3.99 1.35,-7.96 2.25,-11.9 0.9,-3.93 1.94,-7.84 3.13,-11.69 1.19,-3.85 2.53,-7.67 4,-11.42 1.47,-3.76 3.09,-7.47 4.84,-11.1 1.75,-3.63 3.64,-7.21 5.66,-10.7 2.01,-3.49 4.17,-6.92 6.44,-10.25 2.27,-3.33 4.67,-6.59 7.19,-9.74 2.51,-3.15 5.15,-6.22 7.89,-9.18 2.74,-2.95 5.61,-5.82 8.56,-8.56 2.96,-2.74 6.03,-5.38 9.18,-7.89 3.15,-2.52 6.41,-4.92 9.74,-7.19 3.33,-2.27 6.76,-4.43 10.25,-6.44 3.49,-2.02 7.07,-3.91 10.7,-5.66 3.63,-1.75 7.34,-3.37 11.1,-4.84 3.75,-1.47 7.57,-2.81 11.42,-4 3.85,-1.19 7.76,-2.23 11.69,-3.13 3.94,-0.9 7.91,-1.65 11.9,-2.25 3.99,-0.6 8.01,-1.06 12.03,-1.36 4.02,-0.3 8.06,-0.45 12.09,-0.45 4.04,0 8.08,0.15 12.1,0.45 4.02,0.3 8.04,0.76 12.03,1.36 3.99,0.6 7.96,1.35 11.9,2.25 3.93,0.9 7.84,1.94 11.69,3.13 3.85,1.19 7.67,2.53 11.42,4 3.76,1.47 7.47,3.09 11.1,4.84 3.63,1.75 7.21,3.64 10.7,5.66 3.49,2.01 6.92,4.17 10.25,6.44 3.33,2.27 6.59,4.67 9.74,7.19 3.15,2.51 6.22,5.15 9.18,7.89 2.95,2.74 5.82,5.61 8.56,8.56 2.74,2.96 5.38,6.03 7.89,9.18 2.52,3.15 4.92,6.41 7.19,9.74 2.27,3.33 4.43,6.76 6.44,10.25 2.02,3.49 3.91,7.07 5.66,10.7 1.75,3.63 3.37,7.34 4.84,11.1 1.47,3.75 2.81,7.57 4,11.42 1.19,3.85 2.23,7.76 3.13,11.69 0.9,3.94 1.65,7.91 2.25,11.9 0.6,3.99 1.06,8.01 1.36,12.03 0.3,4.02 0.45,8.06 0.45,12.09"
       stroke="#000000"
       stroke-width="1"
       fill="none"
       id="path998"
       style="stroke:#666666;stroke-opacity:1;stroke-width:2;stroke-miterlimit:4;stroke-dasharray:none" />
  </g>
  <g
     transform="translate(1903.2498,2952.1106)"
     id="g1004"
     style="fill:#808080;fill-opacity:1;stroke:none;stroke-opacity:1">
    <text
       x="0"
       y="25"
       font-family="'FG Virgil'"
       font-size="28px"
       fill="#000000"
       text-anchor="start"
       style="white-space:pre;fill:#808080;fill-opacity:1;stroke:none;stroke-opacity:1"
       direction="ltr"
       id="text1002">Produção</text>
  </g>
  <g
     transform="translate(1917.7498,3013.5248)"
     id="g1008">
    <text
       x="0"
       y="28"
       font-family="'Cascadia Code'"
       font-size="28px"
       fill="#5c940d"
       text-anchor="start"
       style="white-space:pre"
       direction="ltr"
       id="text1006">v0.3.1</text>
  </g>
  <g
     stroke-linecap="round"
     transform="translate(1797.8331,3208.836)"
     id="g1040"
     style="stroke:#666666;stroke-opacity:1;stroke-width:2;stroke-miterlimit:4;stroke-dasharray:none">
    <path
       d="m 323.75,161.87 c 0,4.04 -0.15,8.08 -0.45,12.1 -0.3,4.02 -0.76,8.04 -1.36,12.03 -0.6,3.99 -1.35,7.96 -2.25,11.9 -0.9,3.93 -1.94,7.84 -3.13,11.69 -1.19,3.85 -2.53,7.67 -4,11.42 -1.47,3.76 -3.09,7.47 -4.84,11.1 -1.75,3.63 -3.64,7.21 -5.66,10.7 -2.01,3.49 -4.17,6.92 -6.44,10.25 -2.27,3.33 -4.67,6.59 -7.19,9.74 -2.51,3.15 -5.15,6.22 -7.89,9.18 -2.74,2.95 -5.61,5.82 -8.56,8.56 -2.96,2.74 -6.03,5.38 -9.18,7.89 -3.15,2.52 -6.41,4.92 -9.74,7.19 -3.33,2.27 -6.76,4.43 -10.25,6.44 -3.49,2.02 -7.07,3.91 -10.7,5.66 -3.63,1.75 -7.34,3.37 -11.1,4.84 -3.75,1.47 -7.57,2.81 -11.42,4 -3.85,1.19 -7.76,2.23 -11.69,3.13 -3.94,0.9 -7.91,1.65 -11.9,2.25 -3.99,0.6 -8.01,1.06 -12.03,1.36 -4.02,0.3 -8.06,0.45 -12.1,0.45 -4.03,0 -8.07,-0.15 -12.09,-0.45 -4.02,-0.3 -8.04,-0.76 -12.03,-1.36 -3.99,-0.6 -7.96,-1.35 -11.9,-2.25 -3.93,-0.9 -7.84,-1.94 -11.69,-3.13 -3.85,-1.19 -7.67,-2.53 -11.42,-4 -3.76,-1.47 -7.47,-3.09 -11.1,-4.84 -3.63,-1.75 -7.21,-3.64 -10.7,-5.66 -3.49,-2.01 -6.92,-4.17 -10.25,-6.44 -3.33,-2.27 -6.59,-4.67 -9.74,-7.19 -3.15,-2.51 -6.22,-5.15 -9.18,-7.89 -2.95,-2.74 -5.82,-5.61 -8.56,-8.56 -2.74,-2.96 -5.38,-6.03 -7.89,-9.18 -2.52,-3.15 -4.92,-6.41 -7.19,-9.74 -2.27,-3.33 -4.43,-6.76 -6.44,-10.25 -2.02,-3.49 -3.91,-7.07 -5.66,-10.7 -1.75,-3.63 -3.37,-7.34 -4.84,-11.1 -1.47,-3.75 -2.81,-7.57 -4,-11.42 C 6,205.74 4.96,201.83 4.06,197.9 3.16,193.96 2.41,189.99 1.81,186 1.21,182.01 0.75,177.99 0.45,173.97 0.15,169.95 0,165.91 0,161.88 c 0,-4.04 0.15,-8.08 0.45,-12.1 0.3,-4.02 0.76,-8.04 1.36,-12.03 0.6,-3.99 1.35,-7.96 2.25,-11.9 0.9,-3.93 1.94,-7.84 3.13,-11.69 1.19,-3.85 2.53,-7.67 4,-11.42 1.47,-3.76 3.09,-7.47 4.84,-11.1 1.75,-3.63 3.64,-7.21 5.66,-10.7 2.01,-3.49 4.17,-6.92 6.44,-10.25 2.27,-3.33 4.67,-6.59 7.19,-9.74 2.51,-3.15 5.15,-6.22 7.89,-9.18 2.74,-2.95 5.61,-5.82 8.56,-8.56 2.96,-2.74 6.03,-5.38 9.18,-7.89 3.15,-2.52 6.41,-4.92 9.74,-7.19 3.33,-2.27 6.76,-4.43 10.25,-6.44 3.49,-2.02 7.07,-3.91 10.7,-5.66 3.63,-1.75 7.34,-3.37 11.1,-4.84 3.75,-1.47 7.57,-2.81 11.42,-4 3.85,-1.19 7.76,-2.23 11.69,-3.13 3.94,-0.9 7.91,-1.65 11.9,-2.25 3.99,-0.6 8.01,-1.06 12.03,-1.36 4.02,-0.3 8.06,-0.45 12.09,-0.45 4.04,0 8.08,0.15 12.1,0.45 4.02,0.3 8.04,0.76 12.03,1.36 3.99,0.6 7.96,1.35 11.9,2.25 3.93,0.9 7.84,1.94 11.69,3.13 3.85,1.19 7.67,2.53 11.42,4 3.76,1.47 7.47,3.09 11.1,4.84 3.63,1.75 7.21,3.64 10.7,5.66 3.49,2.01 6.92,4.17 10.25,6.44 3.33,2.27 6.59,4.67 9.74,7.19 3.15,2.51 6.22,5.15 9.18,7.89 2.95,2.74 5.82,5.61 8.56,8.56 2.74,2.96 5.38,6.03 7.89,9.18 2.52,3.15 4.92,6.41 7.19,9.74 2.27,3.33 4.43,6.76 6.44,10.25 2.02,3.49 3.91,7.07 5.66,10.7 1.75,3.63 3.37,7.34 4.84,11.1 1.47,3.75 2.81,7.57 4,11.42 1.19,3.85 2.23,7.76 3.13,11.69 0.9,3.94 1.65,7.91 2.25,11.9 0.6,3.99 1.06,8.01 1.36,12.03 0.3,4.02 0.45,8.06 0.45,12.09"
       stroke="#000000"
       stroke-width="1"
       fill="none"
       id="path1038"
       style="stroke:#666666;stroke-opacity:1;stroke-width:2;stroke-miterlimit:4;stroke-dasharray:none" />
  </g>
  <g
     transform="translate(1901.5831,3346.2773)"
     id="g1044"
     style="fill:#808080;fill-opacity:1;stroke:none;stroke-opacity:1">
    <text
       x="0"
       y="25"
       font-family="'FG Virgil'"
       font-size="28px"
       fill="#000000"
       text-anchor="start"
       style="white-space:pre;fill:#808080;fill-opacity:1;stroke:none;stroke-opacity:1"
       direction="ltr"
       id="text1042">Produção</text>
  </g>
  <g
     transform="translate(1916.0831,3407.6915)"
     id="g1048">
    <text
       x="0"
       y="28"
       font-family="'Cascadia Code'"
       font-size="28px"
       fill="#5c940d"
       text-anchor="start"
       style="white-space:pre"
       direction="ltr"
       id="text1046">v0.4.0</text>
  </g>
  <g
     stroke-linecap="round"
     transform="translate(1789.8331,1873.836)"
     id="g1080"
     style="stroke:#666666;stroke-opacity:1;stroke-width:2;stroke-miterlimit:4;stroke-dasharray:none">
    <path
       d="m 323.75,161.87 c 0,4.04 -0.15,8.08 -0.45,12.1 -0.3,4.02 -0.76,8.04 -1.36,12.03 -0.6,3.99 -1.35,7.96 -2.25,11.9 -0.9,3.93 -1.94,7.84 -3.13,11.69 -1.19,3.85 -2.53,7.67 -4,11.42 -1.47,3.76 -3.09,7.47 -4.84,11.1 -1.75,3.63 -3.64,7.21 -5.66,10.7 -2.01,3.49 -4.17,6.92 -6.44,10.25 -2.27,3.33 -4.67,6.59 -7.19,9.74 -2.51,3.15 -5.15,6.22 -7.89,9.18 -2.74,2.95 -5.61,5.82 -8.56,8.56 -2.96,2.74 -6.03,5.38 -9.18,7.89 -3.15,2.52 -6.41,4.92 -9.74,7.19 -3.33,2.27 -6.76,4.43 -10.25,6.44 -3.49,2.02 -7.07,3.91 -10.7,5.66 -3.63,1.75 -7.34,3.37 -11.1,4.84 -3.75,1.47 -7.57,2.81 -11.42,4 -3.85,1.19 -7.76,2.23 -11.69,3.13 -3.94,0.9 -7.91,1.65 -11.9,2.25 -3.99,0.6 -8.01,1.06 -12.03,1.36 -4.02,0.3 -8.06,0.45 -12.1,0.45 -4.03,0 -8.07,-0.15 -12.09,-0.45 -4.02,-0.3 -8.04,-0.76 -12.03,-1.36 -3.99,-0.6 -7.96,-1.35 -11.9,-2.25 -3.93,-0.9 -7.84,-1.94 -11.69,-3.13 -3.85,-1.19 -7.67,-2.53 -11.42,-4 -3.76,-1.47 -7.47,-3.09 -11.1,-4.84 -3.63,-1.75 -7.21,-3.64 -10.7,-5.66 -3.49,-2.01 -6.92,-4.17 -10.25,-6.44 -3.33,-2.27 -6.59,-4.67 -9.74,-7.19 -3.15,-2.51 -6.22,-5.15 -9.18,-7.89 -2.95,-2.74 -5.82,-5.61 -8.56,-8.56 -2.74,-2.96 -5.38,-6.03 -7.89,-9.18 -2.52,-3.15 -4.92,-6.41 -7.19,-9.74 -2.27,-3.33 -4.43,-6.76 -6.44,-10.25 -2.02,-3.49 -3.91,-7.07 -5.66,-10.7 -1.75,-3.63 -3.37,-7.34 -4.84,-11.1 -1.47,-3.75 -2.81,-7.57 -4,-11.42 C 6,205.74 4.96,201.83 4.06,197.9 3.16,193.96 2.41,189.99 1.81,186 1.21,182.01 0.75,177.99 0.45,173.97 0.15,169.95 0,165.91 0,161.88 c 0,-4.04 0.15,-8.08 0.45,-12.1 0.3,-4.02 0.76,-8.04 1.36,-12.03 0.6,-3.99 1.35,-7.96 2.25,-11.9 0.9,-3.93 1.94,-7.84 3.13,-11.69 1.19,-3.85 2.53,-7.67 4,-11.42 1.47,-3.76 3.09,-7.47 4.84,-11.1 1.75,-3.63 3.64,-7.21 5.66,-10.7 2.01,-3.49 4.17,-6.92 6.44,-10.25 2.27,-3.33 4.67,-6.59 7.19,-9.74 2.51,-3.15 5.15,-6.22 7.89,-9.18 2.74,-2.95 5.61,-5.82 8.56,-8.56 2.96,-2.74 6.03,-5.38 9.18,-7.89 3.15,-2.52 6.41,-4.92 9.74,-7.19 3.33,-2.27 6.76,-4.43 10.25,-6.44 3.49,-2.02 7.07,-3.91 10.7,-5.66 3.63,-1.75 7.34,-3.37 11.1,-4.84 3.75,-1.47 7.57,-2.81 11.42,-4 3.85,-1.19 7.76,-2.23 11.69,-3.13 3.94,-0.9 7.91,-1.65 11.9,-2.25 3.99,-0.6 8.01,-1.06 12.03,-1.36 4.02,-0.3 8.06,-0.45 12.09,-0.45 4.04,0 8.08,0.15 12.1,0.45 4.02,0.3 8.04,0.76 12.03,1.36 3.99,0.6 7.96,1.35 11.9,2.25 3.93,0.9 7.84,1.94 11.69,3.13 3.85,1.19 7.67,2.53 11.42,4 3.76,1.47 7.47,3.09 11.1,4.84 3.63,1.75 7.21,3.64 10.7,5.66 3.49,2.01 6.92,4.17 10.25,6.44 3.33,2.27 6.59,4.67 9.74,7.19 3.15,2.51 6.22,5.15 9.18,7.89 2.95,2.74 5.82,5.61 8.56,8.56 2.74,2.96 5.38,6.03 7.89,9.18 2.52,3.15 4.92,6.41 7.19,9.74 2.27,3.33 4.43,6.76 6.44,10.25 2.02,3.49 3.91,7.07 5.66,10.7 1.75,3.63 3.37,7.34 4.84,11.1 1.47,3.75 2.81,7.57 4,11.42 1.19,3.85 2.23,7.76 3.13,11.69 0.9,3.94 1.65,7.91 2.25,11.9 0.6,3.99 1.06,8.01 1.36,12.03 0.3,4.02 0.45,8.06 0.45,12.09"
       stroke="#000000"
       stroke-width="1"
       fill="none"
       id="path1078"
       style="stroke:#666666;stroke-opacity:1;stroke-width:2;stroke-miterlimit:4;stroke-dasharray:none" />
  </g>
  <g
     transform="translate(1893.5831,2011.2773)"
     id="g1084"
     style="fill:#808080;fill-opacity:1;stroke:none;stroke-opacity:1">
    <text
       x="0"
       y="25"
       font-family="'FG Virgil'"
       font-size="28px"
       fill="#000000"
       text-anchor="start"
       style="white-space:pre;fill:#808080;fill-opacity:1;stroke:none;stroke-opacity:1"
       direction="ltr"
       id="text1082">Produção</text>
  </g>
  <g
     transform="translate(1908.0831,2072.6915)"
     id="g1088">
    <text
       x="0"
       y="28"
       font-family="'Cascadia Code'"
       font-size="28px"
       fill="#5c940d"
       text-anchor="start"
       style="white-space:pre"
       direction="ltr"
       id="text1086">v0.3.0</text>
  </g>
</svg>
